<svg width="60" height="45" viewBox="0 0 60 45" fill="none" xmlns="http://www.w3.org/2000/svg">
<path d="M25.84 44.9776C23.5895 44.979 21.339 44.977 19.0879 44.9856C18.5698 44.9876 18.1158 44.7877 17.6593 44.5879C15.4683 43.6291 13.4283 42.4115 11.5748 40.9015C9.81137 39.4636 8.25767 37.8265 7.10365 35.8434C6.98745 35.8421 6.87033 35.8414 6.75387 35.8407C5.45248 35.8415 4.14825 35.7865 2.85129 35.86C1.733 35.9229 0.923065 35.553 0.39502 34.5703V33.182C0.808589 32.2179 1.52919 31.8361 2.57933 31.8944C3.63145 31.9526 4.68953 31.8963 5.74562 31.8904C6.04471 31.8957 6.34314 31.9003 6.64224 31.9056C7.06289 31.895 7.48373 31.8857 7.90392 31.8758L10.5693 31.8718L14.5038 31.8705V31.8705C14.6772 31.8797 14.8499 31.8976 15.0219 31.8976C26.3405 31.8989 37.6584 31.8989 48.977 31.8976C49.1305 31.8976 49.284 31.8824 49.4375 31.8738C50.6842 31.8817 51.9309 31.887 53.1775 31.8983C53.3383 31.8996 53.4799 31.8837 53.5792 31.7421C53.74 31.9876 53.9928 31.9055 54.2131 31.9062C55.4082 31.9135 56.6026 31.9075 57.7983 31.9108C58.7968 31.9135 59.6133 32.7062 59.6276 33.6783C59.6444 34.9706 58.9543 35.8249 57.8327 35.8374C56.7404 35.8507 55.6481 35.8486 54.5559 35.846L52.9175 35.8434V35.8434C51.9143 37.4447 50.7021 38.8568 49.2973 40.1313C47.369 41.8808 45.1953 43.2195 42.8674 44.3457C41.9893 44.7699 41.1053 45.0081 40.1068 44.9995C37.7292 44.9796 35.3515 44.9745 32.9738 44.9742L25.8403 44.9776V44.9776L25.2962 44.7499C25.4777 44.8252 25.6594 44.9004 25.84 44.9776Z" fill="#FCCA5D"/>
<path d="M6.75406 35.8408C5.45248 35.8415 4.14825 35.7866 2.85129 35.86C1.733 35.9229 0.923065 35.553 0.39502 34.5703V33.1821C0.808589 32.218 1.52919 31.8361 2.57933 31.8944C3.63145 31.9526 4.68953 31.8964 5.74562 31.8904C6.04471 31.8957 6.34314 31.9003 6.64224 31.9056C6.04537 32.3331 5.53519 32.7778 5.46704 33.6162C5.37837 34.6967 5.90972 35.3399 6.75406 35.8408" fill="#FCCA5D"/>
<mask id="mask0_0_2688" style="mask-type:luminance" maskUnits="userSpaceOnUse" x="14" y="35" width="39" height="10">
<path fill-rule="evenodd" clip-rule="evenodd" d="M14.2765 35.8438H52.9178V45H14.2765V35.8438Z" fill="white"/>
</mask>
<g mask="url(#mask0_0_2688)">
<path d="M52.9178 35.8438C51.9146 37.4452 50.7024 38.8573 49.2976 40.1317C47.3693 41.8813 45.1956 43.2199 42.8677 44.3462C41.9896 44.7703 41.1056 45.0085 40.107 44.9999C35.352 44.9602 30.5963 44.9794 25.8406 44.9781C25.2986 44.7465 24.7481 44.5328 24.2154 44.28C21.8802 43.1743 19.7383 41.788 17.8133 40.045C16.4357 38.7977 15.2624 37.4075 14.2765 35.8452C27.1567 35.8445 40.0369 35.8438 52.9178 35.8438" fill="#E5B856"/>
</g>
<mask id="mask1_0_2688" style="mask-type:luminance" maskUnits="userSpaceOnUse" x="5" y="31" width="55" height="5">
<path fill-rule="evenodd" clip-rule="evenodd" d="M5.45685 31.7424H59.6267V35.8482H5.45685V31.7424Z" fill="white"/>
</mask>
<g mask="url(#mask1_0_2688)">
<path d="M52.9171 35.8437C40.0363 35.8437 27.156 35.8444 14.2758 35.845C11.8851 35.8444 9.49431 35.8437 7.10355 35.8437C6.98709 35.8424 6.86996 35.8417 6.7535 35.8411C5.90916 35.3402 5.3778 34.6976 5.46647 33.6164C5.53529 32.778 6.04481 32.3333 6.64167 31.9059C7.06252 31.8953 7.48337 31.886 7.90356 31.8761L10.5689 31.8721C11.8804 31.8715 13.192 31.8708 14.5035 31.8708C14.6768 31.8801 14.8495 31.8979 15.0216 31.8979C26.3402 31.8993 37.6581 31.8993 48.9766 31.8979C49.1302 31.8979 49.2837 31.8827 49.4372 31.8741C50.6839 31.8821 51.9305 31.8873 53.1772 31.8986C53.338 31.8999 53.4796 31.884 53.5788 31.7424C53.7396 31.9879 53.9924 31.9059 54.2128 31.9065C55.4078 31.9138 56.6022 31.9079 57.7979 31.9112C58.7964 31.9138 59.613 32.7065 59.6272 33.6786C59.6441 34.9709 58.9539 35.8252 57.8323 35.8378C56.1939 35.8576 54.5555 35.8431 52.9171 35.8437" fill="#E5B856"/>
</g>
<path fill-rule="evenodd" clip-rule="evenodd" d="M7.90363 31.8757L6.64241 31.9055L5.74513 31.8903C4.88226 30.4735 4.86572 29.0085 5.5936 27.5541C6.32678 26.0877 7.55293 25.2745 9.18537 25.0859C9.28836 25.0742 9.39226 25.0702 9.49645 25.0661C9.54623 25.0641 9.59608 25.0622 9.64592 25.0594C8.76902 21.295 12.1318 18.7348 14.9679 19.4389C15.6519 19.6002 16.2812 19.8761 16.8264 20.328C16.6661 20.4817 16.5256 20.6417 16.4052 20.8081L16.3979 20.8188C16.5199 20.6486 16.6629 20.4851 16.8265 20.3283C17.9098 19.5276 19.0393 19.4231 20.2344 20.1649L20.368 19.7159C20.3811 19.6705 20.3937 19.6259 20.4057 19.5812C20.9047 17.7496 23.0211 16.9533 24.5626 17.9996L24.6897 18.0911C25.0219 18.3446 25.1388 18.3229 25.3427 18.0417L25.3957 17.966C26.4167 16.4666 28.5236 16.3633 29.7266 17.7198L29.7511 17.7505L29.8427 17.892C29.9128 17.9937 29.9957 18.0573 30.1559 17.8931L30.2123 17.8297C31.6416 16.0887 34.0231 16.6684 34.8099 18.232L34.8419 18.2768L34.9243 18.3577C36.7513 16.8298 38.7702 17.6424 39.5047 19.1657L39.5705 19.3852C39.5801 19.422 39.5881 19.459 39.5927 19.4965C39.6504 19.9637 39.782 20.1633 40.2464 19.9405L40.3438 19.8903C41.018 19.519 41.7572 19.5759 42.4533 19.9008C43.7231 20.4937 44.2346 21.5247 44.138 22.8931L43.9878 23.2352L43.8176 23.1898C43.8724 23.2087 43.9289 23.2243 43.9876 23.2357C43.9853 23.403 44.0554 23.4335 44.186 23.4164L44.2457 23.4064C46.3916 22.9839 48.193 25.2375 47.2086 27.2729L47.142 27.4025C47.0189 27.6269 47.0064 27.7207 47.2457 27.7918L47.3173 27.8107C49.4686 28.3163 50.2547 29.8362 49.4375 31.8737C49.391 31.8763 49.3446 31.8795 49.2981 31.8827L49.2979 31.8827C49.1909 31.8901 49.0839 31.8975 48.9769 31.8975H15.0219C14.906 31.8975 14.7899 31.8894 14.6735 31.8813L14.6735 31.8813C14.617 31.8773 14.5604 31.8734 14.5037 31.8703L10.5693 31.8721L7.90363 31.8757ZM26.4476 26.4728C25.4345 26.5211 24.3718 27.3522 24.045 28.3481C23.9761 28.5598 23.9861 28.7583 24.086 28.9601C24.2455 29.2831 24.5035 29.4769 24.8569 29.4716C25.2368 29.4663 25.5096 29.2749 25.68 28.9511L25.733 28.8384C25.8964 28.4486 26.1929 28.2303 26.6157 28.2111C27.0471 28.1919 27.3429 28.4003 27.5262 28.7881C27.5825 28.9079 27.6625 29.019 27.7459 29.1223C28.0073 29.4458 28.3587 29.4147 28.6968 29.3161C29.0561 29.2116 29.1951 28.9224 29.205 28.4983C29.2129 28.4043 29.1633 28.2627 29.1018 28.1178C28.6359 27.0306 27.6493 26.4152 26.4476 26.4728ZM36.7313 25.0137C37.2878 24.1389 38.0428 23.6228 39.1214 23.6942C40.1642 23.6082 41.1621 24.3626 41.5373 25.2446C41.7722 25.7985 41.6471 26.2531 41.2025 26.4847C40.7439 26.7229 40.3006 26.5925 39.9982 26.0532C39.7937 25.6893 39.5813 25.4312 39.126 25.4233C38.6079 25.4154 38.3187 25.6767 38.1043 26.1174L38.0567 26.2068C37.8716 26.5226 37.573 26.7016 37.1726 26.6349C36.7597 26.5674 36.5374 26.2941 36.4937 25.8858C36.4593 25.5689 36.5625 25.279 36.7313 25.0137ZM22.4928 22.6522C21.7914 22.2453 21.0291 22.1877 20.2721 22.3862C19.0466 22.7065 18.455 23.6561 18.4358 25.2038L18.398 25.2363C18.3199 25.3022 18.2426 25.3688 18.1656 25.4361L18.398 25.2363L18.437 25.2036C18.566 25.6906 18.9425 25.8302 19.368 25.7627C19.7379 25.7038 19.9766 25.4638 20.0523 25.0891L20.0701 24.9727C20.1078 24.622 20.2262 24.2898 20.5551 24.1032C20.9512 23.8781 21.3095 23.905 21.6559 24.1883L21.7501 24.2719C22.2378 24.7384 22.7612 24.7636 23.1212 24.3943C23.554 23.9523 23.5063 23.6042 22.9247 23.0286L22.7849 22.8991L22.4932 22.6527C22.5358 22.5286 22.6032 22.4378 22.6852 22.3678L22.7589 22.3123C22.6437 22.3882 22.5477 22.4927 22.4928 22.6522ZM27.5302 22.9941C27.1729 22.7056 27.161 22.2153 27.4614 21.8004C28.0179 21.0322 29.3472 20.6107 30.2677 20.9111C31.4793 21.3061 32.2072 22.216 32.2125 23.3872L32.2177 23.4796C32.2321 23.9073 32.0954 24.2817 31.5501 24.3818C31.075 24.4691 30.7335 24.176 30.5661 23.5639L30.5278 23.4344C30.2065 22.4329 29.5399 22.2523 28.716 22.9822L28.627 23.0552C28.2435 23.3441 27.8866 23.2829 27.5302 22.9941Z" fill="#FDF1DC"/>
<path d="M14.5039 31.8699C13.1924 31.8705 11.8809 31.8712 10.5694 31.8719C9.59801 30.0131 10.8076 28.1034 12.5545 27.803C12.9483 27.7362 13.029 27.6429 12.7894 27.2736C12.5717 26.9381 12.5254 26.5186 12.5373 26.109C12.5618 24.7737 13.3334 23.7805 14.6144 23.4106C14.9579 23.3106 15.3006 23.3735 15.6427 23.349C15.8055 23.3371 16.0093 23.3967 15.9465 23.0916C15.7228 22.0091 16.0318 21.0899 16.8265 20.3283C17.9098 19.5276 19.0393 19.4231 20.2344 20.1649C20.3012 19.9379 20.3574 19.7599 20.4057 19.5812C20.9186 17.6987 23.1399 16.9099 24.6897 18.0911C25.0496 18.3657 25.1568 18.3174 25.3957 17.966C26.4167 16.4666 28.5236 16.3633 29.7266 17.7198C29.853 17.8621 29.9152 18.1916 30.2123 17.8297C31.6416 16.0887 34.0231 16.6684 34.8099 18.232C34.8344 18.2803 34.886 18.316 34.9243 18.3577C36.7513 16.8298 38.7702 17.6424 39.5047 19.1657C39.5351 19.2755 39.5788 19.3841 39.5927 19.4965C39.6543 19.9948 39.7998 20.1887 40.3438 19.8903C41.018 19.519 41.7572 19.5759 42.4533 19.9008C43.7231 20.4937 44.2346 21.5247 44.138 22.8931C44.0884 23.0063 44.0381 23.1207 43.9878 23.2352C43.5769 23.1565 43.2738 22.868 42.9165 22.684C39.7681 21.0681 36.3907 20.376 32.885 20.2317C31.7534 20.1854 30.6279 20.3349 29.5023 20.4494C27.3676 20.6658 25.3256 21.2276 23.3583 22.0633C23.0453 22.1963 22.6337 22.2426 22.4928 22.6522C21.7914 22.2453 21.0291 22.1877 20.2721 22.3862C19.0466 22.7065 18.455 23.6561 18.4358 25.2038C17.3407 26.1209 16.415 27.1836 15.7248 28.4396C15.1326 29.5162 14.6171 30.6219 14.5039 31.8699" fill="#FDF1DC"/>
<path d="M43.9875 23.2353C44.0378 23.1209 44.0881 23.0064 44.1384 22.8926C44.3654 22.8151 44.5923 22.7384 44.82 22.661C45.2871 22.6431 45.8297 23.1195 46.1043 22.9084C46.412 22.6716 46.422 22.0495 46.5642 21.5956C46.5973 21.4871 46.641 21.3812 46.6794 21.2734C46.8415 21.0629 46.9944 20.8426 47.1697 20.6414C47.75 19.9731 48.6182 19.8599 49.3249 20.3377C49.7385 20.6183 49.976 21.0365 50.205 21.4527C50.3214 21.6638 50.3909 21.7948 50.5927 21.5546C51.1261 20.922 51.844 20.5686 52.5752 20.2338C52.8796 20.1954 53.1827 20.1365 53.4884 20.124C55.2869 20.0465 56.4912 21.5294 56.1081 23.3399C55.9169 24.2444 55.6217 24.7414 54.5438 25.9563C54.9455 26.1442 55.3319 26.3407 55.6509 26.6405C56.4608 27.4001 56.4701 28.3457 55.6628 29.1067C55.0831 29.6526 54.3658 29.9213 53.5976 30.0556C53.321 30.1039 53.227 30.1668 53.3693 30.4506C53.5704 30.8543 53.634 31.291 53.579 31.7416C53.4798 31.8832 53.3382 31.8998 53.1774 31.8985C51.9307 31.8865 50.6841 31.8813 49.4374 31.874C50.2546 29.8366 49.4685 28.3166 47.3173 27.8104C47.0056 27.737 47.0076 27.6476 47.1419 27.4028C48.2695 25.3349 46.4372 22.9746 44.2456 23.4067C44.0769 23.4398 43.9849 23.4266 43.9875 23.2353" fill="#017B50"/>
<path d="M52.575 20.2337C51.8445 20.5685 51.1265 20.9219 50.5932 21.5545C50.3907 21.7947 50.3219 21.6637 50.2054 21.4526C49.9758 21.0364 49.7389 20.6181 49.3253 20.3376C48.6186 19.8605 47.7498 19.973 47.1695 20.6413C46.9941 20.8425 46.8419 21.0628 46.6791 21.2732C46.4833 21.1072 46.5594 20.8802 46.5587 20.6777C46.5534 18.8474 46.5547 17.0184 46.5554 15.1888C46.5554 14.7111 46.2874 14.4153 45.856 14.3405C45.3769 14.2571 45.0427 14.4841 44.9329 14.9903C44.8634 15.3112 44.8151 15.6275 44.8164 15.9584C44.8237 18.1923 44.8197 20.4269 44.8197 22.6609C44.5928 22.7383 44.3658 22.815 44.1382 22.8931C44.2348 21.5247 43.7233 20.4937 42.4535 19.9009C41.7567 19.576 41.0182 19.519 40.3439 19.8896C39.7993 20.1887 39.6544 19.9948 39.5929 19.4965C39.5783 19.3841 39.5353 19.2755 39.5049 19.1657C39.8265 18.995 40.1481 18.8242 40.4875 18.6443C40.1308 18.0739 39.7629 17.4922 39.5882 16.8087C39.1356 15.0373 40.2261 13.9236 41.981 14.4265C42.5375 14.5853 42.6592 14.5139 42.6765 13.917C42.7122 12.6849 43.1271 11.5745 44.1269 10.7699C45.1777 9.92556 46.5005 9.97849 47.493 10.895C48.4479 11.7764 48.8079 12.9132 48.7986 14.1704C48.7953 14.5953 48.8886 14.6032 49.2426 14.49C50.0598 14.23 50.9055 14.1274 51.5546 14.8355C52.215 15.5547 52.037 16.405 51.7525 17.2322C51.5758 17.7437 51.2761 18.1936 50.9631 18.6588C51.7326 18.9764 52.4506 19.3093 52.575 20.2337" fill="#72B74B"/>
<path d="M7.10364 35.8434C9.4944 35.8434 11.8858 35.844 14.2759 35.8447C15.2619 37.407 16.4358 38.7973 17.8134 40.0446C19.7384 41.7875 21.8796 43.1738 24.2148 44.2795C24.7475 44.5323 25.298 44.746 25.84 44.9776C23.5895 44.979 21.339 44.977 19.0879 44.9856C18.5698 44.9876 18.1158 44.7877 17.6593 44.5879C15.4683 43.6291 13.4283 42.4115 11.5748 40.9015C9.81136 39.4636 8.25766 37.8265 7.10364 35.8434" fill="#FCCA5D"/>
<path d="M15.0965 16.7869C12.3968 16.7776 10.6664 13.8469 11.9733 11.4992C12.3233 10.8725 12.7031 10.8017 13.2027 11.2973C14.4878 12.5725 15.7688 13.8522 17.042 15.1392C17.5224 15.6243 17.4602 15.9955 16.8633 16.3296C16.3161 16.6354 15.7291 16.8028 15.0965 16.7869" fill="#F3991A"/>
<path d="M20.9369 5.27478C21.5788 5.36676 22.2848 5.68835 22.9082 6.19985C23.3912 6.59621 23.771 7.07463 24.0516 7.63245C24.7868 9.09417 24.6524 9.39525 23.0849 9.81213C22.046 10.0881 21.0084 10.3733 19.9689 10.6465C19.1841 10.8537 18.8572 10.5268 19.0643 9.73471C19.3991 8.45364 19.7445 7.17455 20.0886 5.8948C20.1832 5.54145 20.3242 5.2311 20.9369 5.27478" fill="#E63642"/>
<path d="M13.0145 4.70287C13.0165 5.28914 12.7002 5.56971 12.2561 5.45589C10.8421 5.09394 9.43263 4.71345 8.02583 4.32569C7.65593 4.22379 7.52955 3.94918 7.56793 3.56737C7.73071 1.9389 9.59276 0.103972 11.1968 0.00206887C11.4747 -0.0157973 11.7327 0.0808125 11.8075 0.340203C12.2363 1.83435 12.6393 3.33577 13.0145 4.70287" fill="#72B74B"/>
<path d="M7.90363 31.8757C7.48345 31.8856 7.0626 31.8949 6.64241 31.9055C6.34332 31.9002 6.04423 31.8956 5.74513 31.8903C4.88226 30.4735 4.86572 29.0085 5.5936 27.5541C6.32678 26.0877 7.55293 25.2745 9.18537 25.0859C9.33756 25.0687 9.49174 25.068 9.64592 25.0594C10.4248 25.0779 11.1745 25.1997 11.8322 25.6583C9.63335 25.9765 8.24111 27.1921 7.74284 29.3725C7.55028 30.2148 7.72431 31.0492 7.90363 31.8757" fill="#F3991A"/>
<path d="M16.8265 20.3281C16.0317 21.0897 15.7227 22.0088 15.9464 23.092C16.0099 23.3971 15.8054 23.3375 15.6427 23.3488C15.3006 23.3739 14.9578 23.3111 14.6144 23.4103C13.3339 23.7809 12.5624 24.7741 12.5379 26.1088C12.4611 26.0433 12.3851 25.9764 12.3096 25.9109C12.3189 25.7534 12.2785 25.6112 12.2123 25.4676C11.8471 24.6656 11.8643 23.8001 12.0118 22.9828C12.2679 21.5674 13.1255 20.5425 14.4019 19.8668C14.6077 19.7577 14.9055 19.7458 14.9677 19.4387C15.6519 19.6002 16.2812 19.8761 16.8265 20.3281" fill="#E84A59"/>
<path d="M14.968 19.4389C14.9051 19.7459 14.608 19.7572 14.4022 19.8664C13.1257 20.5427 12.2682 21.5676 12.0114 22.9824C11.8645 23.8003 11.8467 24.6651 12.2126 25.4671C12.2788 25.6114 12.3191 25.7536 12.3092 25.9105L11.8328 25.6583C11.175 25.1998 10.4246 25.0774 9.64581 25.0595C8.76904 21.295 12.1319 18.7349 14.968 19.4389" fill="#E63642"/>
<path fill-rule="evenodd" clip-rule="evenodd" d="M44.2457 23.4064C44.077 23.4395 43.985 23.4269 43.9877 23.2357C43.7143 23.1829 43.4886 23.0375 43.263 22.8921C43.1495 22.819 43.0359 22.7458 42.9163 22.6845C39.7679 21.0679 36.3905 20.3758 32.8855 20.2315C31.9273 20.1923 30.9729 20.294 30.0196 20.3956C29.8471 20.414 29.6746 20.4323 29.5021 20.4499C27.3681 20.6663 25.3261 21.2274 23.3581 22.0631C23.2929 22.0908 23.2235 22.1148 23.1531 22.1391C22.8855 22.2314 22.6043 22.3284 22.4933 22.6527C22.5374 22.6908 22.5823 22.7281 22.6271 22.7655C22.729 22.8504 22.831 22.9353 22.9247 23.0286C23.5064 23.6043 23.554 23.9523 23.1213 24.3943C22.7613 24.7636 22.2379 24.7384 21.7502 24.2719C21.3743 23.912 20.9872 23.8577 20.5551 24.1032C20.2263 24.2898 20.1078 24.622 20.0701 24.9727C20.0231 25.414 19.775 25.6979 19.368 25.7628C18.9425 25.8303 18.566 25.6906 18.437 25.2036C17.3405 26.1214 16.4148 27.1835 15.7246 28.44C15.1324 29.5166 14.6169 30.6224 14.5038 31.8704C14.5604 31.8734 14.617 31.8773 14.6735 31.8813C14.7899 31.8894 14.9061 31.8975 15.0219 31.8975C26.3405 31.8988 37.6584 31.8988 48.977 31.8975C49.084 31.8975 49.1909 31.8901 49.2979 31.8827C49.3445 31.8795 49.391 31.8763 49.4375 31.8737C50.2547 29.8363 49.4686 28.3163 47.3174 27.8108C47.0051 27.7366 47.0077 27.6473 47.142 27.4025C48.2696 25.3346 46.4373 22.975 44.2457 23.4064ZM30.2677 20.9111C31.4793 21.3061 32.2072 22.216 32.2125 23.3872C32.2496 23.8524 32.1344 24.2746 31.5501 24.3818C31.075 24.4691 30.7336 24.176 30.5662 23.5639C30.2618 22.4496 29.5743 22.2219 28.716 22.9822C28.2985 23.3521 27.914 23.3052 27.5302 22.9942C27.1729 22.7057 27.161 22.2153 27.4614 21.8004C28.0179 21.0322 29.3473 20.6107 30.2677 20.9111ZM29.1018 28.1178C29.1633 28.2627 29.213 28.4043 29.205 28.4983C29.1951 28.9224 29.0561 29.2116 28.6968 29.3161C28.3587 29.4147 28.0073 29.4458 27.7459 29.1223C27.6626 29.019 27.5825 28.9079 27.5263 28.7881C27.343 28.4003 27.0472 28.1919 26.6157 28.2111C26.1929 28.2303 25.8965 28.4486 25.733 28.8384C25.5689 29.2301 25.2791 29.4657 24.8569 29.4717C24.5036 29.4769 24.2455 29.2831 24.086 28.9601C23.9861 28.7583 23.9762 28.5598 24.045 28.3481C24.3719 27.3522 25.4346 26.5211 26.4477 26.4728C27.6493 26.4152 28.636 27.0306 29.1018 28.1178ZM39.1214 23.6942C38.0428 23.6228 37.2878 24.1389 36.7313 25.0137C36.5626 25.279 36.4594 25.5689 36.4938 25.8858C36.5374 26.2941 36.7598 26.5674 37.1727 26.6349C37.6094 26.7077 37.9251 26.488 38.1044 26.1174C38.3188 25.6767 38.6079 25.4154 39.1261 25.4233C39.5813 25.4312 39.7937 25.6893 39.9982 26.0533C40.3006 26.5925 40.7439 26.7229 41.2025 26.4847C41.6472 26.2531 41.7722 25.7985 41.5373 25.2446C41.1621 24.3626 40.1643 23.6082 39.1214 23.6942Z" fill="#FEFEFE"/>
<path fill-rule="evenodd" clip-rule="evenodd" d="M22.6211 22.7602C22.5782 22.7245 22.5353 22.6888 22.4929 22.6524C21.7908 22.2455 21.0292 22.1879 20.2722 22.3864C19.0467 22.7067 18.4545 23.6563 18.4366 25.2033C18.5657 25.691 18.9428 25.8306 19.3677 25.7625C19.7753 25.6983 20.0234 25.4144 20.0704 24.9731C20.1081 24.6223 20.2259 24.2902 20.5548 24.1029C20.9875 23.8574 21.3746 23.9117 21.7505 24.2716C22.2375 24.7381 22.7609 24.7633 23.1209 24.3947C23.5543 23.952 23.506 23.604 22.9244 23.0283C22.8288 22.9332 22.725 22.8468 22.6211 22.7602ZM12.3097 25.9107L11.8326 25.6586C9.63369 25.9762 8.24079 27.1918 7.74252 29.3721C7.54996 30.2151 7.72399 31.0489 7.90398 31.876L10.5694 31.8721C9.59796 30.0133 10.8076 28.103 12.5545 27.8032C12.9489 27.7364 13.0296 27.6431 12.7894 27.2732C12.5717 26.9383 12.5254 26.5188 12.5373 26.1092C12.5015 26.0781 12.4657 26.0469 12.43 26.0157C12.3898 25.9805 12.3496 25.9454 12.3097 25.9107Z" fill="#F8B343"/>
<path d="M44.8199 22.6608C44.8199 20.4269 44.8238 18.1923 44.8166 15.9584C44.8152 15.6275 44.8629 15.3112 44.933 14.9903C45.0429 14.4841 45.377 14.2571 45.8554 14.3405C46.2875 14.4153 46.5555 14.711 46.5555 15.1888C46.5549 17.0184 46.5535 18.8474 46.5588 20.6777C46.5595 20.8802 46.4834 21.1071 46.6793 21.2732C46.6409 21.3811 46.5979 21.4876 46.5641 21.5961C46.4219 22.0494 46.4119 22.6721 46.1042 22.9083C45.8296 23.1194 45.287 22.6436 44.8199 22.6608" fill="#84BE61"/>
<path fill-rule="evenodd" clip-rule="evenodd" d="M31.5501 24.3818C32.1344 24.2746 32.2496 23.8524 32.2125 23.3872C32.2072 22.216 31.4793 21.3061 30.2677 20.9111C29.3473 20.6107 28.0179 21.0322 27.4614 21.8004C27.161 22.2153 27.1729 22.7056 27.5302 22.9941C27.914 23.3051 28.2985 23.3521 28.716 22.9822C29.5743 22.2219 30.2618 22.4496 30.5662 23.5639C30.7336 24.176 31.075 24.4691 31.5501 24.3818ZM39.1217 23.6935C40.1639 23.6081 41.1624 24.3625 41.5369 25.2446C41.7725 25.7984 41.6468 26.253 41.2028 26.4846C40.7435 26.7228 40.3002 26.5925 39.9978 26.0532C39.794 25.6899 39.5809 25.4312 39.1263 25.4232C38.6082 25.4159 38.3184 25.6767 38.1046 26.1174C37.9247 26.4879 37.6097 26.7076 37.173 26.6348C36.76 26.5673 36.5377 26.294 36.4934 25.8858C36.4596 25.5688 36.5629 25.279 36.7316 25.0136C37.2881 24.1388 38.0424 23.6234 39.1217 23.6935ZM29.2051 28.498C29.1952 28.9228 29.0562 29.2113 28.6962 29.3159C28.3588 29.4151 28.0067 29.4462 27.746 29.122C27.6626 29.0188 27.5826 28.9076 27.5263 28.7878C27.343 28.4007 27.0472 28.1916 26.6158 28.2108C26.193 28.2307 25.8965 28.449 25.7331 28.8388C25.569 29.2298 25.2792 29.4654 24.857 29.472C24.5036 29.4767 24.2456 29.2834 24.0861 28.9599C23.9862 28.7587 23.9762 28.5602 24.0451 28.3478C24.372 27.3526 25.4347 26.5215 26.4477 26.4725C27.6487 26.4156 28.636 27.0303 29.1019 28.1182C29.1634 28.2631 29.213 28.404 29.2051 28.498Z" fill="#F8B343"/>
<path d="M46.1879 20.1264C46.702 20.2389 47.0289 20.6459 47.3942 20.9595C48.6097 22.0017 49.7313 23.1365 50.1575 24.7538C50.5088 26.0911 49.951 27.2769 48.7388 27.9386C47.2115 28.7717 45.5579 28.8345 43.8811 28.7862C43.5258 28.5414 43.0944 28.509 42.702 28.368C40.1782 27.4608 37.7914 26.3141 35.7262 24.5519C34.6556 23.6394 33.7556 22.6191 33.2177 21.3102C32.6585 19.9471 33.0721 18.6634 34.2982 17.8402C34.9818 17.3823 35.7447 17.1467 36.5434 17.0031C36.116 17.6172 36.2708 18.2028 36.6414 18.7679C36.8849 19.1391 37.1813 19.4674 37.5287 19.7453C39.1572 21.0469 41.0113 21.7986 43.0831 22.0183C43.6376 22.1281 44.1868 22.0507 44.7347 21.9666C45.8557 21.7946 46.2785 21.2593 46.1879 20.1264" fill="#FDF1DC"/>
<path d="M36.5433 17.0034C35.7446 17.1469 34.9823 17.3818 34.2981 17.8404C33.072 18.6636 32.6584 19.9473 33.2182 21.3104C33.7555 22.6186 34.6555 23.639 35.7268 24.5522C37.7913 26.3136 40.1781 27.461 42.7025 28.3682C43.0943 28.5092 43.5257 28.5416 43.881 28.7864C41.9065 28.7156 40.0147 28.222 38.1658 27.5848C35.8803 26.798 33.7363 25.7075 31.869 24.1558C30.7004 23.1851 29.5768 22.1468 29.0541 20.6454C28.4532 18.9197 29.1262 17.4599 30.8288 16.7751C32.5373 16.0875 34.31 16.0796 36.1 16.2735C36.4699 16.3145 36.8775 16.2364 37.1852 16.5408C36.9708 16.6943 36.757 16.8492 36.5433 17.0034" fill="#FCEEAF"/>
<path d="M46.1879 20.1264C46.2785 21.2593 45.8557 21.7946 44.7348 21.9666C44.1869 22.0507 43.6376 22.1281 43.0831 22.0183C42.6676 21.6709 42.1322 21.5465 41.679 21.2705C40.7943 20.7326 39.8904 20.2177 39.3597 19.2682C38.7661 18.2094 39.1155 17.4412 40.2887 17.0971C40.7546 16.9601 41.2455 17.1123 41.6876 16.8907C43.5066 17.5259 45.1887 18.3511 46.1879 20.1264" fill="#F8B343"/>
<path d="M41.6877 16.8909C41.2457 17.1126 40.7547 16.9598 40.2889 17.0974C39.115 17.4415 38.7663 18.2091 39.3592 19.2685C39.8905 20.2174 40.7938 20.7328 41.6785 21.2708C42.1324 21.5467 42.6671 21.6711 43.0826 22.0185C41.0115 21.7988 39.1574 21.0465 37.5289 19.7449C37.1808 19.4676 36.885 19.1388 36.6415 18.7682C36.2703 18.2024 36.1161 17.6175 36.5436 17.0034C36.7573 16.8492 36.9711 16.6944 37.1848 16.5409C38.7253 16.1485 40.2194 16.3589 41.6877 16.8909" fill="#F3991A"/>
</svg>
