<svg width="46" height="37" viewBox="0 0 46 37" fill="none" xmlns="http://www.w3.org/2000/svg">
<path d="M34.4999 37H11.5001C5.14887 37 0 31.6273 0 25H46C46 31.6273 40.8511 37 34.4999 37Z" fill="#CC4900"/>
<path d="M30 25H44V30H30V25Z" fill="#E76400"/>
<path d="M32 25H0C0 31.6273 5.11689 37 11.4287 37H20.5713C26.8831 37 32 31.6273 32 25Z" fill="#EF7F00"/>
<path d="M35 37V32.294C38.1083 32.294 40.823 30.1166 41.6005 27L46 28.1766C44.7042 33.3707 40.1803 37 35 37Z" fill="#BF3C00"/>
<path d="M2 25H30V30H2V25Z" fill="#F59707"/>
<path d="M22.9997 32L2 23H44L22.9997 32Z" fill="#FDBC34"/>
<path d="M23 29.8722L38.078 23L39 25.1278L23.922 32L23 29.8722Z" fill="#FDAB00"/>
<path d="M4.60013 16H41.3999C43.9402 16 46 18.0146 46 20.4998C46 22.9854 43.9402 25 41.3999 25H4.60013C2.05938 25 0 22.9854 0 20.4998C0 18.0146 2.05938 16 4.60013 16Z" fill="#8B2800"/>
<path d="M4.57155 16H27.4285C29.953 16 32 18.0146 32 20.4998C32 22.9854 29.953 25 27.4285 25H4.57155C2.04659 25 0 22.9854 0 20.4998C0 18.0146 2.04659 16 4.57155 16Z" fill="#993B17"/>
<path d="M35 18.5C35 16.015 30.299 14 24.5 14C18.701 14 14 16.015 14 18.5C14 20.985 18.701 23 24.5 23C30.299 23 35 20.985 35 18.5Z" fill="#C11107"/>
<path fill-rule="evenodd" clip-rule="evenodd" d="M12.5 11C18.299 11 23 13.1489 23 15.8001C23 18.4508 18.299 20.5997 12.5 20.5997C6.70099 20.5997 2 18.4508 2 15.8001C2 13.1489 6.70099 11 12.5 11ZM33.5 11C39.299 11 44 13.6863 44 16.9998C44 20.3137 39.299 23 33.5 23C27.701 23 23 20.3137 23 16.9998C23 13.6863 27.701 11 33.5 11Z" fill="#C82E25"/>
<path d="M42 17.5C42 15.5671 38.4182 14 33.9998 14C29.5818 14 26 15.5671 26 17.5C26 19.4333 29.5818 21 33.9998 21C38.4182 21 42 19.4333 42 17.5Z" fill="#D2514A"/>
<path d="M2 16.3336C2 16.3336 2 18.6668 6.66681 18.6668C11.3336 18.6668 11.3336 21 13.6668 21C16 21 16 18.6668 20.6668 18.6668C25.3336 18.6668 24.8795 21 27.4399 21C30 21 30 18.6668 34.6668 18.6668C39.3336 18.6668 44 18.6668 44 14H2V16.3336Z" fill="#FEE3AA"/>
<path d="M14 16C14 7.16338 21.1635 0 29.9998 0C38.8365 0 46 7.16338 46 16H14Z" fill="#EF7F00"/>
<path d="M40 4.5C40 2.01497 35.7465 0 30.4998 0C25.253 0 21 2.01497 21 4.5C21 6.98503 25.253 9 30.4998 9C35.7465 9 40 6.98503 40 4.5Z" fill="#E76400"/>
<path d="M33.8975 26C32.4083 26.0008 30.9238 25.8277 29.4715 25.4841C27.8787 25.829 26.2563 26.0017 24.6292 26C20.7068 26 17.1666 25.1 14.8233 23.5213C14.2442 23.5671 13.651 23.5944 13.0435 23.5944C8.98867 23.5944 5.32758 22.6429 3 20.9831L4.31271 19C6.26311 20.3911 9.44561 21.1884 13.0435 21.1884C13.7257 21.1884 14.3867 21.151 15.0291 21.0888L15.4602 21.0474L15.811 21.3095C18.5659 23.364 24.336 24.2085 29.2305 23.0773L29.4952 23.0165L29.7579 23.0821C31.113 23.4235 32.5029 23.5957 33.8975 23.5944C37.9027 23.5944 41.4917 22.3011 43.2647 20.2184L45 21.8113C42.7692 24.434 38.618 26 33.8975 26Z" fill="#7D1A00"/>
<path d="M35 11H44V16H35V11Z" fill="#FDBC34"/>
<path d="M0 16C0 7.16338 7.16347 0 15.9998 0C24.8365 0 32 7.16338 32 16H0Z" fill="#F59707"/>
<path d="M2 11H30V16H2V11Z" fill="#FDCF6D"/>
<path d="M26 4.5C26 2.01497 21.7465 0 16.4998 0C11.253 0 7 2.01497 7 4.5C7 6.98503 11.253 9 16.4998 9C21.7465 9 26 6.98503 26 4.5Z" fill="#EF7F00"/>
<path fill-rule="evenodd" clip-rule="evenodd" d="M18.2501 1.16681C18.2501 0.522522 17.2428 0 15.9998 0C14.7572 0 13.7499 0.522522 13.7499 1.16681C13.7499 1.8111 14.7572 2.33362 15.9998 2.33362C17.2428 2.33362 18.2501 1.8111 18.2501 1.16681ZM11.5001 5.83362C11.5001 5.18933 10.4928 4.66681 9.24985 4.66681C8.0073 4.66681 7 5.18933 7 5.83362C7 6.47791 8.0073 7 9.24985 7C10.4928 7 11.5001 6.47791 11.5001 5.83362ZM22.7497 2.33362C23.9927 2.33362 25 2.85571 25 3.5C25 4.14429 23.9927 4.66681 22.7497 4.66681C21.5072 4.66681 20.4999 4.14429 20.4999 3.5C20.4999 2.85571 21.5072 2.33362 22.7497 2.33362Z" fill="#FEE3AA"/>
<path fill-rule="evenodd" clip-rule="evenodd" d="M27.3999 0C28.7253 0 29.7998 0.559828 29.7998 1.25011C29.7998 1.9404 28.7253 2.50023 27.3999 2.50023C26.0745 2.50023 25 1.9404 25 1.25011C25 0.559828 26.0745 0 27.3999 0ZM34.6001 2.50023C35.9255 2.50023 37 3.0596 37 3.74989C37 4.44017 35.9255 5 34.6001 5C33.2747 5 32.2002 4.44017 32.2002 3.74989C32.2002 3.0596 33.2747 2.50023 34.6001 2.50023Z" fill="#FDCF6D"/>
</svg>
