<svg width="45" height="45" viewBox="0 0 45 45" fill="none" xmlns="http://www.w3.org/2000/svg">
<path d="M42.9547 22.5002C40.9093 32.7272 34.773 42.9547 34.773 42.9547C34.773 42.9547 32.7273 45 22.5002 45C12.2728 45 10.2274 42.9547 10.2274 42.9547C10.2274 42.9547 4.09106 32.7272 2.04535 22.5002H42.9547Z" fill="#C82E25"/>
<path d="M26.7227 44.8644L26.441 40.7835C29.3815 40.5797 31.0156 40.1752 31.7965 39.9183C32.922 37.8939 35.7527 32.5336 37.6554 26.5909H30.6819V22.5002H43.0314L42.3603 25.0639C40.264 33.0681 36.1921 40.4906 34.9947 42.576L34.6759 43.1296L34.0995 43.403C33.2257 43.8187 31.1062 44.5618 26.7227 44.8644Z" fill="#AF0A00"/>
<path d="M21.7493 44.9906C21.7511 44.9903 21.7568 44.9835 21.759 44.9835C24.9347 40.5479 29.4044 32.7212 30.6819 22.5002H2.04535C4.09106 32.7272 10.2274 42.9547 10.2274 42.9547C10.2274 42.9547 12.1915 44.8906 21.7493 44.9906Z" fill="#D2514A"/>
<path d="M22.5002 36.8183C18.3073 36.8183 14.7477 35.2782 12.4986 32.5426C11.748 32.6692 10.9881 32.731 10.2274 32.7273V28.6366C11.196 28.6366 12.0199 28.5197 12.6761 28.289L14.2473 27.7366L15.1061 29.1628C15.9084 30.4943 17.9368 32.7273 22.5002 32.7273C26.0897 32.7273 28.1051 31.3242 29.1639 30.1467L32.2059 32.8831C29.9227 35.4209 26.4762 36.8183 22.5002 36.8183Z" fill="#C82E25"/>
<path d="M34.7729 32.7272C33.3415 32.7272 32.0613 32.5325 30.9677 32.1482L32.3238 28.289C33.5654 28.7253 35.7006 28.8572 36.9861 28.0972L39.0696 31.6167C37.825 32.3538 36.3789 32.7272 34.7729 32.7272Z" fill="#AF0A00"/>
<path d="M40.9093 16.3638C40.9093 16.3638 38.8636 0 22.5002 0C6.13638 0 4.09105 16.3638 4.09105 16.3638C4.09105 16.3638 0 16.3638 0 20.4545C0 24.5455 6.13638 24.5455 6.13638 24.5455C6.13638 24.5455 6.13638 28.6366 10.2274 28.6366C14.3181 28.6366 14.3181 26.5909 14.3181 26.5909C14.3181 28.6366 16.3638 32.7272 22.5002 32.7272C28.6366 32.7272 30.6819 28.6366 30.6819 26.5909C30.6819 26.5909 30.6819 28.6366 34.7729 28.6366C38.8636 28.6366 38.8636 24.5455 38.8636 24.5455C38.8636 24.5455 45 24.5455 45 20.4545C45 16.3638 40.9093 16.3638 40.9093 16.3638Z" fill="#FDCF6D"/>
<path d="M34.7729 26.5909C36.5318 26.5909 36.8093 25.3017 36.8183 24.5335L36.8224 22.5062L38.8588 22.5002C38.8966 22.5002 42.9547 22.3762 42.9547 20.4545C42.9547 18.6957 41.6651 18.4181 40.8973 18.4091L40.9213 16.3638C42.9517 16.3878 45 17.6619 45 20.4545C45 23.6897 40.9872 24.5444 38.8636 24.5455V24.5474C38.8396 26.5879 37.5655 28.6366 34.7729 28.6366V26.5909Z" fill="#FDBC34"/>
<path d="M12.4447 42.4992C8.32481 36.3198 6.27423 30.2385 6.18921 29.9826L8.12893 29.3354C8.14878 29.3954 10.1855 35.4231 14.1466 41.3648L12.4447 42.4992Z" fill="#D96C66"/>
<path d="M16.3638 6.13638C6.13638 6.13638 4.09105 16.3638 4.09105 16.3638C4.09105 16.3638 0 16.3638 0 20.4545C0 24.5455 6.13638 24.5455 6.13638 24.5455C6.13638 24.5455 6.13638 28.6366 10.2274 28.6366C14.3181 28.6366 14.3181 26.5909 14.3181 26.5909C14.3181 28.6366 16.3638 32.7272 22.5002 32.7272C30.6819 32.7272 32.7272 6.13638 16.3638 6.13638Z" fill="#FEE3AA"/>
<path d="M22.5002 32.7272C17.2447 32.7272 15.0114 29.7392 14.46 27.6137H13.8368C13.2585 28.1879 12.1218 28.6366 10.2274 28.6366C7.43489 28.6366 6.16035 26.5849 6.13638 24.5515L6.12926 24.5455C4.01501 24.5455 0 23.6905 0 20.4545C0 17.662 2.05133 16.3878 4.08505 16.3638L4.9109 16.3548L4.933 18.4002L4.1079 18.4092C3.33786 18.4181 2.04534 18.6957 2.04534 20.4545C2.04534 22.3762 6.10342 22.5002 6.14425 22.5002L8.15775 22.5182L8.18172 24.5276C8.19071 25.2987 8.46861 26.5909 10.2274 26.5909C11.5608 26.5909 12.1301 26.3343 12.3177 26.2205L12.4155 25.5684H16.3638V26.5909C16.3638 27.4549 17.4054 30.6819 22.5002 30.6819V32.7272Z" fill="#FDCF6D"/>
<path fill-rule="evenodd" clip-rule="evenodd" d="M28.6366 6.13639C29.7662 6.13639 30.6819 5.22066 30.6819 4.09106C30.6819 2.96109 29.7662 2.04535 28.6366 2.04535C27.5066 2.04535 26.5909 2.96109 26.5909 4.09106C26.5909 5.22066 27.5066 6.13639 28.6366 6.13639ZM18.4092 8.18173C19.5388 8.18173 20.4545 7.26599 20.4545 6.13639C20.4545 5.0068 19.5388 4.09106 18.4092 4.09106C17.2796 4.09106 16.3638 5.0068 16.3638 6.13639C16.3638 7.26599 17.2796 8.18173 18.4092 8.18173Z" fill="#993B17"/>
<path d="M26.5909 20.4545C26.5909 21.5845 25.6751 22.5002 24.5455 22.5002C23.4159 22.5002 22.5002 21.5845 22.5002 20.4545C22.5002 19.3249 23.4159 18.4091 24.5455 18.4091C25.6751 18.4091 26.5909 19.3249 26.5909 20.4545Z" fill="#AD6143"/>
<path d="M36.8183 12.2728C36.8183 13.4023 35.9025 14.3181 34.7729 14.3181C33.643 14.3181 32.7272 13.4023 32.7272 12.2728C32.7272 11.1432 33.643 10.2274 34.7729 10.2274C35.9025 10.2274 36.8183 11.1432 36.8183 12.2728Z" fill="#993B17"/>
<path d="M14.3181 14.3181C14.3181 15.4481 13.4023 16.3638 12.2728 16.3638C11.1432 16.3638 10.2274 15.4481 10.2274 14.3181C10.2274 13.1885 11.1432 12.2728 12.2728 12.2728C13.4023 12.2728 14.3181 13.1885 14.3181 14.3181Z" fill="#AD6143"/>
<path d="M27.6137 11.2499C27.6137 12.3799 26.698 13.2956 25.5684 13.2956C24.4384 13.2956 23.5226 12.3799 23.5226 11.2499C23.5226 10.1203 24.4384 9.20456 25.5684 9.20456C26.698 9.20456 27.6137 10.1203 27.6137 11.2499Z" fill="#FDCF6D"/>
<path fill-rule="evenodd" clip-rule="evenodd" d="M28.6365 14.3181C29.7661 14.3181 30.6819 13.4023 30.6819 12.2728C30.6819 11.1432 29.7661 10.2274 28.6365 10.2274C27.5066 10.2274 26.5908 11.1432 26.5908 12.2728C26.5908 13.4023 27.5066 14.3181 28.6365 14.3181ZM19.432 16.3638C19.9968 16.3638 20.4545 15.9057 20.4545 15.3409C20.4545 14.7761 19.9968 14.3181 19.432 14.3181C18.8672 14.3181 18.4091 14.7761 18.4091 15.3409C18.4091 15.9057 18.8672 16.3638 19.432 16.3638Z" fill="#FDCF6D"/>
<path d="M40.9093 22.5002C40.9093 23.6298 39.9936 24.5455 38.8636 24.5455C37.734 24.5455 36.8183 23.6298 36.8183 22.5002C36.8183 21.3702 37.734 20.4545 38.8636 20.4545C39.9936 20.4545 40.9093 21.3702 40.9093 22.5002Z" fill="#FDBC34"/>
<path d="M28.6366 26.5909C28.6366 27.7208 27.7208 28.6366 26.5909 28.6366C25.4613 28.6366 24.5455 27.7208 24.5455 26.5909C24.5455 25.4613 25.4613 24.5455 26.5909 24.5455C27.7208 24.5455 28.6366 25.4613 28.6366 26.5909Z" fill="#FDCF6D"/>
<path d="M34.7729 20.4545C34.7729 21.5845 33.8572 22.5002 32.7272 22.5002C31.5976 22.5002 30.6819 21.5845 30.6819 20.4545C30.6819 19.3249 31.5976 18.4091 32.7272 18.4091C33.8572 18.4091 34.7729 19.3249 34.7729 20.4545Z" fill="#FDBC34"/>
<path fill-rule="evenodd" clip-rule="evenodd" d="M13.2956 8.18178C13.8604 8.18178 14.3181 7.7241 14.3181 7.1593C14.3181 6.5945 13.8604 6.13644 13.2956 6.13644C12.7309 6.13644 12.2728 6.5945 12.2728 7.1593C12.2728 7.7241 12.7309 8.18178 13.2956 8.18178ZM10.2275 10.2275C10.2275 11.3571 9.31172 12.2728 8.18175 12.2728C7.05215 12.2728 6.13641 11.3571 6.13641 10.2275C6.13641 9.09752 7.05215 8.18178 8.18175 8.18178C9.31172 8.18178 10.2275 9.09752 10.2275 10.2275ZM18.4092 24.5456C19.5388 24.5456 20.4545 23.6298 20.4545 22.5003C20.4545 21.3703 19.5388 20.4545 18.4092 20.4545C17.2796 20.4545 16.3638 21.3703 16.3638 22.5003C16.3638 23.6298 17.2796 24.5456 18.4092 24.5456ZM13.2956 26.5909C13.8604 26.5909 14.3181 26.1332 14.3181 25.5684C14.3181 25.0036 13.8604 24.5456 13.2956 24.5456C12.7309 24.5456 12.2728 25.0036 12.2728 25.5684C12.2728 26.1332 12.7309 26.5909 13.2956 26.5909Z" fill="#FDCF6D"/>
</svg>
