<svg width="38" height="45" viewBox="0 0 38 45" fill="none" xmlns="http://www.w3.org/2000/svg">
<path fill-rule="evenodd" clip-rule="evenodd" d="M32.8139 23.1635C32.8193 22.9373 32.7477 22.8489 32.514 22.857C32.3675 22.8617 32.2211 22.8635 32.0747 22.8639L31.1967 22.8604L25.1796 22.8833L13.9099 22.8788L2.63992 22.8695C2.3543 22.8695 2.25436 22.9492 2.26314 23.2409C2.26868 23.434 2.27149 23.6271 2.27292 23.8203L2.27593 24.9795C2.27867 25.366 2.28677 25.7525 2.31108 26.139C2.59198 30.6576 4.35232 34.5018 7.54619 37.7004C8.60631 38.7632 9.82916 39.6119 11.0842 40.4185L10.5155 40.4273C9.79406 40.4273 9.07262 40.4275 8.35121 40.4277C5.70618 40.4284 3.06157 40.429 0.417382 40.4205L0.353861 40.4211C0.0703737 40.4277 -0.0327303 40.4931 0.00886423 40.8466C0.194554 42.4105 0.961622 43.5766 2.29521 44.3963C2.53391 44.5429 2.791 44.6374 3.05097 44.7235L3.44113 44.8517C3.57061 44.896 3.69886 44.9436 3.82395 45H31.1534C31.1801 44.9402 31.2241 44.9249 31.2721 44.9199L31.3453 44.9158L31.381 44.9115C33.354 44.5199 34.8882 42.8149 35.0442 40.8784C35.0745 40.5043 34.9807 40.4165 34.6093 40.4185L31.2417 40.4274L24.0824 40.4273C24.0964 40.3361 24.1389 40.3015 24.1835 40.2763L24.2363 40.2477C26.3323 38.9836 28.1014 37.3665 29.5201 35.3705C29.6524 35.1841 29.8205 35.1152 30.0251 35.0666L33.1618 34.327C34.2069 34.0792 35.2508 33.8269 36.2913 33.5601C38.2887 33.0483 39.7006 31.1523 39.6499 29.1448C39.5966 27.0293 38.1921 25.2737 36.1691 24.776C35.1481 24.5255 34.1636 24.6551 33.2055 25.0414L33.1414 25.0656C32.8579 25.1649 32.7867 25.0713 32.803 24.7436L32.8148 24.3491C32.8167 24.1731 32.815 23.9968 32.8133 23.8205C32.8112 23.6015 32.8091 23.3824 32.8139 23.1635ZM33.6096 28.1396C33.9638 28.0419 34.318 27.9443 34.6748 27.8571C35.5283 27.6485 36.3055 28.1171 36.5371 28.955C36.7559 29.7478 36.3197 30.5716 35.4918 30.8173C34.981 30.9686 34.4663 31.1067 33.9504 31.2408L32.2623 31.6768L31.4668 31.8748C31.9165 30.7667 32.2217 29.7201 32.4506 28.6519C32.4884 28.477 32.5667 28.4182 32.7281 28.3764C33.023 28.3014 33.3163 28.2205 33.6096 28.1396Z" fill="#BF1717"/>
<path fill-rule="evenodd" clip-rule="evenodd" d="M3.20159 44.7727C3.41185 44.8408 3.62202 44.909 3.82395 45H31.1534C31.188 44.9223 31.2521 44.9198 31.3159 44.9173C31.338 44.9164 31.3601 44.9155 31.381 44.9115C33.354 44.5199 34.8882 42.8149 35.0442 40.8784C35.0745 40.5043 34.9807 40.4165 34.6093 40.4185C31.9996 40.43 29.3895 40.429 26.779 40.4279C26.021 40.4276 25.2631 40.4273 24.5051 40.4273H24.0824C24.0988 40.3203 24.1546 40.2912 24.2068 40.2639C24.2169 40.2586 24.2268 40.2534 24.2363 40.2477C26.3323 38.9836 28.1014 37.3665 29.5201 35.3705C29.6524 35.1841 29.8205 35.1152 30.0251 35.0666C30.58 34.9347 31.1352 34.8042 31.6903 34.6738C33.2266 34.3129 34.7626 33.952 36.2913 33.5601C38.2887 33.0483 39.7006 31.1523 39.6499 29.1448C39.5966 27.0293 38.1921 25.2737 36.1691 24.776C35.1481 24.5255 34.1636 24.6551 33.2055 25.0414C32.8685 25.1771 32.7855 25.0947 32.803 24.7436C32.8192 24.4365 32.8163 24.1286 32.8133 23.8205C32.8112 23.6015 32.8091 23.3824 32.8139 23.1635C32.8193 22.9373 32.7477 22.8489 32.514 22.857C32.2235 22.8664 31.9332 22.8642 31.643 22.8621C31.4942 22.861 31.3454 22.8599 31.1967 22.8604C30.1917 22.8641 29.1868 22.868 28.1821 22.8719C27.1812 22.8757 26.1804 22.8796 25.1796 22.8833C25.1794 23.1002 25.1796 23.3171 25.1798 23.5341C25.1802 24.0044 25.1806 24.4749 25.1769 24.9448C25.1519 27.9955 24.4943 30.8957 23.0155 33.5757C21.8055 35.7702 20.2126 37.6467 18.1882 39.1484C17.9657 39.3135 17.7377 39.4692 17.5099 39.6246C17.2934 39.7725 17.0771 39.9201 16.8661 40.0755C16.4495 40.3827 16.0106 40.4449 15.5163 40.4374C14.4511 40.4214 13.3859 40.4207 12.3204 40.4201C11.9088 40.4199 11.4971 40.4196 11.0854 40.4185C11.0165 40.4195 10.9475 40.4208 10.8785 40.4222C10.7575 40.4245 10.6364 40.4269 10.5155 40.4273C9.79406 40.4273 9.07262 40.4275 8.35121 40.4277C5.70618 40.4284 3.06157 40.429 0.417382 40.4205C0.0858411 40.4199 -0.0357013 40.4678 0.00886423 40.8466C0.194554 42.4105 0.961622 43.5766 2.29521 44.3963C2.57994 44.5711 2.89086 44.6719 3.20159 44.7727ZM31.7889 31.795C31.6888 31.8197 31.5823 31.846 31.4668 31.8748C31.9165 30.7667 32.2217 29.7201 32.4506 28.6519C32.4884 28.477 32.5667 28.4182 32.7281 28.3764C33.023 28.3014 33.3163 28.2205 33.6096 28.1396C33.9638 28.0419 34.318 27.9443 34.6748 27.8571C35.5283 27.6485 36.3055 28.1171 36.5371 28.955C36.7559 29.7478 36.3197 30.5716 35.4918 30.8173C34.7605 31.0339 34.0213 31.2234 33.282 31.413C32.9885 31.4882 32.695 31.5635 32.402 31.6405C32.2091 31.6915 32.0153 31.7393 31.7889 31.795Z" fill="#BF1717"/>
<path d="M5.13032 20.582C4.69952 20.5839 4.58878 20.4563 4.60364 20.0397C4.67589 18.0484 5.42472 16.33 6.65298 14.7945C7.83126 13.3225 9.3546 12.3677 11.144 11.8153C11.9421 11.5695 12.7659 11.4433 13.5958 11.4385C16.481 11.421 19.3663 11.4338 22.2516 11.4298C23.6196 11.4284 24.8499 10.2596 25.1092 8.91722C25.4245 7.28652 24.1632 5.69972 22.8256 5.41409C22.4346 5.33104 22.0443 5.36412 21.6533 5.30943C20.2353 5.11631 19.0949 3.83336 19.0328 2.29383C19.0071 1.651 19.0375 1.0048 19.024 0.360626C19.0186 0.0993099 19.0989 0.000725466 19.3724 0.00207594C21.9504 0.0101788 24.5278 0.0128797 27.1052 1.64644e-05C27.4597 -0.00197548 27.484 0.176962 27.4617 0.436928C27.3814 1.37686 27.6434 2.21753 28.2983 2.88938C28.8892 3.49575 29.6265 3.79623 30.5016 3.79555C32.0668 3.79285 33.4369 4.26957 34.547 5.4492C35.7887 6.76929 36.1918 9.07792 35.4255 10.7214C34.4754 12.7559 32.8704 13.7195 30.6509 13.7168C29.611 13.7154 28.5711 13.7121 27.5313 13.7181C26.1592 13.7249 25.2578 14.9133 25.6237 16.2246C25.8344 16.9795 26.6447 17.5724 27.5826 17.5724C28.925 17.5724 30.1147 18.59 30.4287 19.935C30.5536 20.4698 30.4679 20.5718 29.9108 20.5718C25.7797 20.5725 21.65 20.5718 17.5202 20.5718C13.3905 20.5718 9.26074 20.5657 5.13032 20.582Z" fill="#F0E4D6"/>
<path fill-rule="evenodd" clip-rule="evenodd" d="M25.1801 23.5016C25.18 23.2954 25.1798 23.0892 25.18 22.883C24.1067 22.8826 23.0333 22.8822 21.96 22.8819C15.52 22.8797 9.07997 22.8776 2.63994 22.8695C2.35432 22.8695 2.25438 22.9492 2.26316 23.2409C2.2743 23.6294 2.2744 24.0181 2.2745 24.4068C2.27464 24.9841 2.27479 25.5615 2.3111 26.139C2.592 30.6576 4.35234 34.5018 7.54621 37.7004C8.60633 38.7632 9.82918 39.6119 11.0858 40.4189C11.5042 40.42 11.9226 40.4202 12.3411 40.4205C13.3996 40.421 14.4582 40.4216 15.516 40.4371C16.011 40.4452 16.4492 40.3824 16.8665 40.0752C17.0797 39.9179 17.2986 39.7686 17.5178 39.6191C17.7431 39.4654 17.9686 39.3116 18.1886 39.1487C20.213 37.6463 21.8058 35.7699 23.0159 33.5753C24.494 30.8953 25.1523 27.9952 25.1766 24.9452C25.1809 24.464 25.1805 23.9828 25.1801 23.5016ZM4.61366 25.8939C4.61945 25.9633 4.61815 26.0359 4.61683 26.1103C4.61398 26.2702 4.61098 26.4388 4.6778 26.6042L4.68022 26.6101C4.72788 26.7274 4.77209 26.8362 4.91751 26.7798C5.04445 26.7286 5.17386 26.727 5.30295 26.7254H5.30295C5.37642 26.7245 5.44978 26.7236 5.52252 26.7136C6.19321 26.6219 6.19304 26.6204 6.11444 25.9373L6.11403 25.9337C6.1039 25.8473 6.09715 25.7568 6.11066 25.671C6.17548 25.2564 6.01882 25.0701 5.59005 25.1403C5.53437 25.1486 5.47727 25.1464 5.42023 25.1442H5.42022C5.3894 25.143 5.35861 25.1418 5.32806 25.1423C5.23439 25.1434 5.15288 25.1429 5.08196 25.1425C4.84549 25.1412 4.72679 25.1406 4.66788 25.1996C4.60851 25.2591 4.60986 25.3792 4.61259 25.6203C4.61347 25.6982 4.61449 25.7887 4.61366 25.8939ZM4.99922 28.5253C5.00934 28.5565 5.01724 28.5794 5.0235 28.5975C5.03227 28.6229 5.03782 28.639 5.04176 28.6556C5.54751 30.709 6.33753 32.6185 7.86492 34.1439C7.93623 34.2152 8.00435 34.3012 8.07288 34.3878C8.24832 34.6093 8.42645 34.8342 8.66777 34.8245C8.85448 34.8165 8.99396 34.5939 9.13243 34.373C9.19127 34.2791 9.24993 34.1855 9.31195 34.1088C9.3304 34.0858 9.35126 34.0653 9.37212 34.0447C9.38255 34.0344 9.39298 34.0241 9.40311 34.0136C9.58069 33.8292 9.57462 33.6874 9.35922 33.5105C8.92977 33.158 8.58404 32.7225 8.25926 32.2715C7.42061 31.1047 6.88785 29.8021 6.55766 28.4138C6.48609 28.1127 6.37467 28.035 6.08432 28.1262C5.93023 28.174 5.7711 28.2055 5.61185 28.237C5.48567 28.2619 5.35942 28.2868 5.23555 28.32L5.20632 28.3275C5.09504 28.3555 4.96265 28.3889 4.99922 28.5253Z" fill="#D91217"/>
<path fill-rule="evenodd" clip-rule="evenodd" d="M4.66786 25.1996C4.58931 25.2783 4.61706 25.4631 4.61364 25.8939C4.61943 25.9633 4.61814 26.0359 4.61681 26.1103C4.61396 26.2702 4.61096 26.4388 4.67779 26.6042C4.67859 26.6062 4.67939 26.6082 4.6802 26.6102C4.72786 26.7275 4.77207 26.8362 4.91749 26.7798C5.04444 26.7286 5.17384 26.727 5.30293 26.7254C5.3764 26.7245 5.44976 26.7237 5.52251 26.7136C6.19319 26.6219 6.19302 26.6204 6.11443 25.9373L6.11401 25.9337C6.10388 25.8473 6.09713 25.7568 6.11064 25.671C6.17546 25.2565 6.0188 25.0701 5.59003 25.1403C5.53435 25.1486 5.47725 25.1464 5.42021 25.1442C5.38939 25.1431 5.35859 25.1419 5.32804 25.1423C4.92204 25.147 4.74444 25.1229 4.66786 25.1996ZM5.20629 28.3272C5.09495 28.3552 4.96216 28.3887 4.99933 28.5256C5.00834 28.5531 5.01559 28.5742 5.02145 28.5912C5.03141 28.6201 5.03737 28.6374 5.0412 28.6553C5.54762 30.7086 6.33697 32.6189 7.86503 34.1436C7.93638 34.2149 8.00452 34.301 8.07308 34.3877C8.24849 34.6093 8.4266 34.8344 8.66789 34.8242C8.85442 34.8166 8.99382 34.5943 9.13216 34.3736C9.19113 34.2796 9.24991 34.1858 9.31206 34.1091C9.32978 34.0871 9.34972 34.0673 9.36956 34.0475C9.38072 34.0364 9.39185 34.0253 9.40255 34.0139C9.58081 33.8289 9.57406 33.6878 9.35933 33.5109C8.92921 33.1577 8.58416 32.7229 8.25937 32.2718C7.42073 31.1043 6.88797 29.8025 6.55778 28.4142C6.4862 28.113 6.37479 28.0347 6.08376 28.1259C5.92835 28.1741 5.76801 28.2059 5.60757 28.2377C5.48291 28.2625 5.35819 28.2872 5.23567 28.3197C5.22614 28.3222 5.2163 28.3246 5.20629 28.3272Z" fill="#E85F5B"/>
</svg>
