<?xml version="1.0" encoding="UTF-8"?>
<svg width="165px" height="172px" viewBox="0 0 165 172" version="1.1" xmlns="http://www.w3.org/2000/svg" xmlns:xlink="http://www.w3.org/1999/xlink">
    <title>Group 98</title>
    <defs>
        <polygon id="path-1" points="0 0 151.896037 0 151.896037 141.395206 0 141.395206"></polygon>
        <polygon id="path-3" points="0 0 144.945452 0 144.945452 106.183626 0 106.183626"></polygon>
        <polygon id="path-5" points="0 172 165 172 165 0 0 0"></polygon>
    </defs>
    <g id="Page-1" stroke="none" stroke-width="1" fill="none" fill-rule="evenodd">
        <g id="nav-&gt;-pagamento-(vazio)" transform="translate(-125, -316)">
            <g id="Group" transform="translate(100, 316)">
                <g id="Group-98" transform="translate(25, 0)">
                    <g id="Group-3" transform="translate(0, 0)">
                        <mask id="mask-2" fill="white">
                            <use xlink:href="#path-1"></use>
                        </mask>
                        <g id="Clip-2"></g>
                        <path d="M150.456995,59.0098746 L108.601527,2.92501998 C106.438698,0.0267291633 102.519616,-0.800645329 99.4060504,0.816168643 C99.0663364,0.992639805 98.7364347,1.19803379 98.4188684,1.43353826 L2.93372711,72.2348023 C-0.290506932,74.6255464 -0.960052566,79.1702028 1.43904165,82.384968 L43.2944397,138.469823 C43.5306345,138.786367 43.7879957,139.078529 44.0633694,139.344284 C46.5788789,141.786796 50.5704306,142.116614 53.4770983,139.961304 L148.96231,69.1600403 C152.186544,66.7692263 152.856089,62.2247097 150.456995,59.0098746" id="Fill-1" fill-opacity="0.1" fill="#000000" mask="url(#mask-2)"></path>
                    </g>
                    <path d="M111.437996,5.75228221 L153.293394,61.8371368 C155.692559,65.0519719 155.022943,69.5965584 151.798639,71.9873025 L56.3134977,142.788567 C53.40683,144.943876 49.4152783,144.614058 46.8998388,142.171546 C46.6243951,141.905861 46.3670339,141.613629 46.1308391,141.297155 L4.2755111,85.2122302 C1.87634679,81.997465 2.54589243,77.4528785 5.77012647,75.0621344 L101.255338,4.26080049 C101.572904,4.02529602 101.902666,3.81997189 102.24245,3.64343087 C105.356016,2.0266169 109.275097,2.85406125 111.437996,5.75228221" id="Fill-4" fill="#818181"></path>
                    <path d="M45.5339391,93.1146591 L33.3299578,102.163731 C32.5676864,102.728984 31.4900915,102.571166 30.9230138,101.811348 L23.6098766,92.0120986 C23.0428689,91.2522806 23.2011264,90.178084 23.9633978,89.6129012 L36.1673791,80.5637591 C36.9296504,79.9985064 38.0072453,80.1563245 38.5743231,80.9161425 L45.8873902,90.7154617 C46.454468,91.4752798 46.2962105,92.5494065 45.5339391,93.1146591" id="Fill-6" fill="#FFD524"></path>
                    <path d="M39.3035132,94.3600942 C39.7108616,93.2923249 39.5814801,92.045779 38.8482249,91.0633111 C38.8213814,91.0273323 38.7932063,90.9937287 38.7655217,90.9592868 L43.0927924,87.7506694 L44.9182907,90.1967441 L39.3035132,94.3600942 Z M45.5127026,90.9933095 C45.9251674,91.545987 45.8096632,92.3299773 45.2552012,92.7411145 L39.3711476,97.10413 L38.3529168,95.7397969 L45.2425154,90.6312153 L45.5127026,90.9933095 Z M33.0512199,101.790257 C32.4967579,102.201394 31.7101662,102.086262 31.2977014,101.533584 L31.0275142,101.17149 L37.9171129,96.0629781 L38.9352736,97.4273111 L33.0512199,101.790257 Z M28.8777912,98.2909439 L33.2043611,95.0828855 C33.2795649,95.1920796 33.3603758,95.2977807 33.4473543,95.3980325 C34.1794881,96.2394492 35.2579941,96.6484907 36.3188381,96.5732494 L30.7032896,100.737089 L28.8777912,98.2909439 Z M26.728699,95.4112364 L31.1059421,92.1655223 C31.3773208,92.4103184 31.6864766,92.6121495 32.0219854,92.7610252 C32.3475417,92.9051503 32.5742046,93.2217644 32.6281719,93.6076117 C32.6768827,93.9576897 32.7790002,94.293935 32.9307396,94.6108985 L28.5535666,97.8565426 L26.728699,95.4112364 Z M24.5790461,92.5306905 L30.1945246,88.3669212 C29.7866856,89.4353193 29.9159269,90.6824939 30.6492521,91.6651015 C30.675605,91.7004517 30.7039204,91.7340552 30.7315348,91.7682876 L26.4044744,94.9767652 L24.5790461,92.5306905 Z M23.9846343,91.7342648 C23.5721695,91.1815873 23.6876737,90.3974574 24.2421357,89.9863899 L30.1261893,85.6233745 L31.14435,86.9877076 L24.2547514,92.0962892 L23.9846343,91.7342648 Z M36.446117,80.9372478 C37.000579,80.5261105 37.7871707,80.6412429 38.1996355,81.1939903 L40.6194756,84.4364907 L36.0570614,87.8194833 L36.0548887,87.8210902 C35.9426786,87.9059724 35.9150642,88.0614151 35.9879551,88.178853 C36.1652064,88.4952575 36.2807806,88.8371617 36.3312436,89.1952039 C36.4112835,89.7680016 36.7566746,90.2415955 37.2549264,90.4621495 C37.6003175,90.6152169 37.9091229,90.8312299 38.1732826,91.1045995 C38.2557054,91.1894817 38.3361659,91.2843542 38.4123509,91.3864923 C39.4168446,92.7323119 39.0781819,94.6695825 37.6387955,95.5849131 C36.4264925,96.3603103 34.8010238,96.1273907 33.8579968,95.0435532 C33.7276341,94.8933501 33.6119197,94.7298034 33.5140075,94.5577335 C33.3335323,94.239792 33.2166264,93.8952331 33.1663036,93.533069 C33.0861235,92.960411 32.7407324,92.4867474 32.2426908,92.2662632 C31.7851598,92.0633144 31.3849603,91.7436962 31.0851261,91.3419204 C30.1226148,90.0521998 30.3923815,88.221329 31.6865467,87.260658 C31.7203289,87.2355776 31.7478733,87.2028123 31.766867,87.1653664 C31.8132649,87.0738473 31.803733,86.9640244 31.7423364,86.8817271 L30.5620633,85.3001933 L36.446117,80.9372478 Z M42.7685678,87.3161982 L38.390764,90.5623314 C38.1186143,90.3166271 37.8120517,90.1165426 37.4754917,89.9673176 C37.1498653,89.8231925 36.9232725,89.5065784 36.869235,89.1201722 C36.8198935,88.7703038 36.7184068,88.4337092 36.5667375,88.1163964 L40.9437002,84.8709618 L42.7685678,87.3161982 Z M36.1673791,80.563766 L30.2833254,84.9267116 L29.8474514,85.2498928 L23.9633978,89.6129082 C23.2011264,90.178091 23.0428689,91.2522876 23.6098766,92.0121056 L23.8800638,92.3740601 L24.2042884,92.8085313 L26.0297868,95.254606 L26.0296466,95.2547457 L26.3538712,95.689147 L26.3540114,95.6890073 L28.1788789,98.1343136 L28.1787388,98.1343834 L28.5029634,98.5688546 L28.5031036,98.5687847 L30.3286019,101.014929 L30.6528266,101.4494 L30.9230138,101.811425 C31.4900915,102.571173 32.5676864,102.728991 33.3299578,102.163738 L39.2140115,97.8007929 L39.6498855,97.4776117 L45.5339391,93.1146661 C46.2962105,92.5494135 46.454468,91.4752868 45.8873902,90.7154687 L45.617203,90.3533745 L45.2930485,89.9189732 L38.5743231,80.9160796 C38.0072453,80.1563314 36.9296504,79.9985134 36.1673791,80.563766 L36.1673791,80.563766 Z" id="Fill-8" fill="#B3B3B3"></path>
                    <path d="M157.525584,89.8935015 L126.693474,27.1111961 C125.100176,23.8668094 121.399627,22.3373927 118.041526,23.3578655 C117.675109,23.4693651 117.313177,23.6109751 116.957693,23.7844422 L10.070021,75.939006 C6.46072638,77.7001547 4.96674179,82.0454252 6.73399744,85.6440816 L37.5661078,148.426387 C37.7400649,148.780727 37.9393236,149.114946 38.1612205,149.42653 C40.1848561,152.287305 44.0481478,153.340892 47.3018886,151.753141 L154.189561,99.5985771 C157.798856,97.8374284 159.29284,93.4922278 157.525584,89.8935015" id="Fill-10" fill-opacity="0.1" fill="#000000"></path>
                    <path d="M129.529872,29.9384863 L160.361912,92.7207917 C162.129238,96.319518 160.635254,100.664719 157.025959,102.425797 L50.1382866,154.580431 C46.8844757,156.168113 43.0212541,155.114595 40.9976185,152.25375 C40.7757216,151.942236 40.5764629,151.607947 40.4024357,151.253677 L9.57039543,88.4713717 C7.8030697,84.8726455 9.29712437,80.5274448 12.9063489,78.7662962 L119.794021,26.6116626 C120.149505,26.4381955 120.511507,26.2965854 120.877994,26.1851556 C124.236095,25.164613 127.936644,26.6941695 129.529872,29.9384863" id="Fill-12" fill="#FFD629"></path>
                    <path d="M48.6764792,103.778554 L35.0151691,110.444428 C34.1618541,110.860805 33.1314981,110.50884 32.7138469,109.658272 L27.3267134,98.6887656 C26.9089921,97.8381969 27.2621628,96.8111571 28.1154778,96.3947802 L41.776788,89.7289069 C42.6300329,89.31253 43.6603888,89.6645641 44.0781102,90.5150629 L49.4651735,101.484639 C49.8828949,102.335138 49.5297942,103.362177 48.6764792,103.778554" id="Fill-14" fill="#FFD524"></path>
                    <path d="M42.3226152,103.864519 C42.91941,102.889247 43.0214574,101.640186 42.4812932,100.54035 C42.4615286,100.50011 42.4400117,100.461896 42.4191256,100.422982 L47.2631513,98.0594146 L48.6079196,100.797722 L42.3226152,103.864519 Z M49.0457561,101.689229 C49.3495853,102.307926 49.0918736,103.057614 48.471179,103.360466 L41.8844984,106.574393 L41.1344223,105.047142 L48.8467077,101.283961 L49.0457561,101.689229 Z M34.8098688,110.026339 C34.1891742,110.32919 33.4370655,110.072238 33.1332363,109.453611 L32.9341879,109.048342 L40.6464733,105.285161 L41.3965494,106.812412 L34.8098688,110.026339 Z M31.3506315,105.823727 L36.1938862,103.460578 C36.2477834,103.581718 36.3077082,103.700274 36.3747819,103.814848 C36.9397571,104.775798 37.9247664,105.374864 38.9814752,105.494747 L32.6953998,108.561964 L31.3506315,105.823727 Z M29.7675657,102.600159 L34.6675212,100.209275 C34.8892779,100.499481 35.1561009,100.754407 35.4585284,100.962037 C35.7520547,101.163239 35.9166902,101.515902 35.8988179,101.905103 C35.8822072,102.258115 35.9207553,102.607285 36.0117288,102.946534 L31.1117734,105.337418 L29.7675657,102.600159 Z M28.1840094,99.3756827 L34.4700848,96.3084658 C33.8727292,97.284227 33.7704015,98.5339167 34.3106358,99.6338224 C34.3299799,99.6734341 34.3516369,99.7116486 34.372523,99.7502822 L29.5287076,102.11378 L28.1840094,99.3756827 Z M27.7461729,98.4840353 C27.4423437,97.8654081 27.7001254,97.1156502 28.32075,96.8127989 L34.9075007,93.5990117 L35.6575067,95.1261929 L27.9451512,98.8893041 L27.7461729,98.4840353 Z M41.9821302,90.1469256 C42.6027548,89.8441441 43.3548635,90.1010263 43.6586927,90.7197233 L45.4412274,94.3495381 L40.3339532,96.841582 C40.3331823,96.8419313 40.3324113,96.8422806 40.3315702,96.8426998 C40.2056231,96.9057152 40.1499035,97.0534032 40.199946,97.1822286 C40.3160809,97.5256697 40.3666841,97.8828736 40.3504939,98.2440596 C40.3239307,98.8216778 40.5763157,99.3503927 41.0255764,99.6583439 C41.3369751,99.8719118 41.6008544,100.140601 41.8102057,100.457634 C41.8755973,100.556209 41.9372743,100.664006 41.9934143,100.77837 C42.7333278,102.285012 42.0441577,104.127549 40.4608115,104.764411 C39.1264862,105.305072 37.5713854,104.779151 36.8436671,103.541408 C36.7431617,103.369897 36.6594772,103.187977 36.5948566,103.000956 C36.4759182,102.655419 36.4243338,102.295281 36.4414351,101.930113 C36.4679983,101.352495 36.2155432,100.82378 35.7664227,100.515969 C35.354028,100.232888 35.0193603,99.8455738 34.7985147,99.3958029 C34.0895098,97.9520369 34.691421,96.2015072 36.1403393,95.4935966 C36.1781165,95.4750832 36.2112679,95.4479069 36.2367797,95.4145828 C36.2992276,95.3331238 36.3100211,95.2234406 36.2648147,95.1312928 L35.3953796,93.3608525 L41.9821302,90.1469256 Z M47.0242932,97.5730361 L42.123777,99.9642692 C41.9013895,99.6730848 41.6368093,99.4203245 41.3334006,99.212136 C41.0398042,99.0109337 40.8752388,98.6583407 40.8931812,98.2685113 C40.9090209,97.9156388 40.8711737,97.5661896 40.7804805,97.226521 L45.6800855,94.8358468 L47.0242932,97.5730361 Z M41.7767739,89.728872 L35.1900233,92.9427989 L34.7021444,93.1808184 L34.7021444,93.1808882 L28.1154638,96.3947452 C27.2621488,96.8111222 26.9090481,97.838162 27.3266994,98.6887306 L27.5257478,99.0939995 L27.7646059,99.5803781 L29.1093042,102.318476 L29.109164,102.318545 L29.347952,102.804924 L29.3480922,102.804784 L30.6923699,105.542113 L30.6922298,105.542183 L30.9310178,106.028492 L30.931228,106.028422 L32.2759263,108.766659 L32.5147844,109.252968 L32.7138328,109.658307 C33.1314841,110.508805 34.16184,110.860839 35.015155,110.444463 L41.6018356,107.230536 L42.0897846,106.992446 L48.6764652,103.778589 C49.5297802,103.362212 49.8828809,102.335103 49.4652296,101.484674 L49.2661812,101.079335 L49.0273231,100.593026 L44.0780961,90.5150978 C43.6604449,89.6645292 42.6300889,89.312495 41.7767739,89.728872 L41.7767739,89.728872 Z" id="Fill-16" fill="#B3B3B3"></path>
                    <path d="M161.077323,129.217298 L147.415382,60.655807 C146.709391,57.1128305 143.525668,54.6891815 140.017299,54.8178671 C139.634481,54.8319093 139.248159,54.8764114 138.859945,54.9532595 L22.1331826,78.0633667 C18.1916733,78.8437241 15.6304668,82.6622359 16.4135541,86.5921774 L30.075425,155.153669 C30.1525212,155.540564 30.2591943,155.914605 30.3936221,156.272437 C31.6141954,159.554549 35.0775679,161.559726 38.6309327,160.856216 L155.357695,137.746179 C159.299204,136.965752 161.860411,133.14731 161.077323,129.217298" id="Fill-18" fill-opacity="0.101999563" fill="#000000"></path>
                    <g id="Group-22" transform="translate(20.0545, 58.5826)">
                        <mask id="mask-4" fill="white">
                            <use xlink:href="#path-3"></use>
                        </mask>
                        <g id="Clip-21"></g>
                        <path d="M131.142698,5.8428939 L144.804639,74.4043854 C145.587796,78.3343269 143.02652,82.1528387 139.08494,82.9331961 L22.3581784,106.043303 C18.8048837,106.746743 15.3415112,104.741567 14.1209378,101.459454 C13.9865101,101.101692 13.8798369,100.727651 13.8027407,100.340686 L0.140869857,31.7791945 C-0.642287571,27.849253 1.91898906,24.0307412 5.8604983,23.2503837 L122.58726,0.140346375 C122.975475,0.0634284219 123.361727,0.0189962529 123.744615,0.00488414892 C127.252983,-0.123731611 130.436777,2.29991746 131.142698,5.8428939" id="Fill-20" fill="#F74D4D" mask="url(#mask-4)"></path>
                    </g>
                    <path d="M54.0603466,115.147014 L39.1414569,118.100705 C38.209644,118.28521 37.3041839,117.681813 37.1190829,116.752929 L34.7320437,104.773709 C34.5469427,103.844825 35.1522882,102.942279 36.0841712,102.757774 L51.0029908,99.8040829 C51.9348739,99.6195776 52.8403339,100.223045 53.0253649,101.151859 L55.4124741,113.131149 C55.5975751,114.059963 54.9921595,114.962509 54.0603466,115.147014" id="Fill-23" fill="#FFD524"></path>
                    <path d="M47.8965178,113.607118 C48.7241106,112.81684 49.1438645,111.635545 48.9045158,110.434479 C48.8957549,110.390536 48.8848212,110.3482 48.8745884,110.305165 L54.1645106,109.257865 L54.7603943,112.248164 L47.8965178,113.607118 Z M54.9543964,113.221829 C55.0890345,113.897464 54.6471329,114.556262 53.969317,114.690466 L46.7763798,116.114601 L46.4439549,114.446718 L54.8662264,112.779184 L54.9543964,113.221829 Z M39.0504974,117.644158 C38.3726814,117.778362 37.7117566,117.337883 37.5771185,116.662249 L37.4889485,116.219673 L45.9111499,114.55221 L46.2435047,116.220023 L39.0504974,117.644158 Z M36.7872327,112.698284 L42.0763138,111.651124 C42.0971999,111.781976 42.1246741,111.911989 42.1600683,112.039766 C42.4591316,113.112985 43.2572877,113.943643 44.247834,114.32949 L37.3831164,115.688583 L36.7872327,112.698284 Z M36.0857272,109.178013 L41.4367656,108.118557 C41.57652,108.455711 41.7689101,108.770299 42.0078383,109.04821 C42.239898,109.317667 42.3083033,109.70058 42.1909769,110.072175 C42.0841636,110.409259 42.0316681,110.756543 42.0323689,111.107808 L36.6814006,112.167194 L36.0857272,109.178013 Z M35.3840815,105.656624 L42.2487991,104.29753 C41.4205754,105.088158 41.0003309,106.270011 41.2396796,107.471217 C41.2483004,107.514322 41.2593742,107.556798 41.269607,107.599623 L35.9799652,108.646853 L35.3840815,105.656624 Z M35.1900794,104.682959 C35.0554413,104.007394 35.4973428,103.348526 36.1751588,103.214322 L43.3681661,101.790257 L43.7005209,103.45807 L35.2782494,105.125534 L35.1900794,104.682959 Z M51.0940485,100.26063 C51.7717943,100.126426 52.4327192,100.566975 52.5673572,101.242539 L53.3572431,105.206434 L47.7798221,106.310671 C47.778911,106.310881 47.7780699,106.31095 47.7772289,106.31116 C47.6392967,106.339873 47.5474821,106.468419 47.5626911,106.605768 C47.586661,106.967303 47.5437675,107.325625 47.435202,107.670533 C47.2610346,108.222162 47.3691095,108.797615 47.7241727,109.21008 C47.9702498,109.496024 48.1561918,109.823188 48.2770927,110.183116 C48.3150101,110.295035 48.3468298,110.415128 48.3717108,110.539971 C48.69958,112.185219 47.5597474,113.790226 45.865523,114.001418 C44.4367898,114.183129 43.0688225,113.277509 42.6836217,111.895222 C42.6305655,111.7038 42.5963628,111.50665 42.582065,111.30929 C42.5559224,110.94496 42.5986757,110.583704 42.7090635,110.235024 C42.8832309,109.683464 42.775156,109.107942 42.4201629,108.695686 C42.0943263,108.316686 41.8703968,107.856785 41.7725547,107.365656 C41.4583525,105.789012 42.4901803,104.250653 44.0726854,103.936484 C44.114037,103.92831 44.1530056,103.910496 44.1862972,103.884786 C44.2675986,103.821981 44.3062869,103.718725 44.2862419,103.618123 L43.9009711,101.684765 L51.0940485,100.26063 Z M54.0586785,108.726775 L48.7070093,109.78637 C48.5669044,109.448029 48.3761964,109.136096 48.1364272,108.857417 C47.9043676,108.58789 47.8359622,108.205046 47.9534989,107.832892 C48.0595412,107.495738 48.1127376,107.148315 48.1123872,106.79691 L53.4630752,105.737524 L54.0586785,108.726775 Z M51.0030048,99.8040829 L43.8099975,101.228218 L43.2771926,101.333639 L36.0841853,102.757774 C35.1523022,102.942279 34.5469567,103.844825 34.7319876,104.773709 L34.8202278,105.216284 L34.9260598,105.747305 L35.5218735,108.737534 L35.5217333,108.737604 L35.6275654,109.268624 L35.6277055,109.268624 L36.223379,112.257875 L36.2231687,112.257945 L36.3290709,112.788965 L36.3292111,112.788965 L36.9250247,115.779264 L37.0308568,116.310354 L37.1190969,116.752929 C37.3041979,117.681813 38.209658,118.28521 39.1414709,118.100705 L46.3344782,116.67664 L46.8672832,116.571149 L54.0603606,115.147014 C54.9921736,114.962509 55.5975191,114.059963 55.4124881,113.131219 L55.3243181,112.688574 L55.2184159,112.157483 L53.0253789,101.151859 C52.840348,100.223045 51.9348879,99.6195776 51.0030048,99.8040829 L51.0030048,99.8040829 Z" id="Fill-25" fill="#B3B3B3"></path>
                    <path d="M151.748155,83.9119885 C151.369893,83.8514881 150.982239,83.8200502 150.586455,83.8200502 L31.5794671,83.8200502 C27.5609317,83.8200502 24.302495,87.0680697 24.302495,91.0747196 L24.302495,160.975603 C24.302495,161.370044 24.3339643,161.757638 24.3959216,162.134682 C24.9515751,165.59096 27.9567157,168.230343 31.5794671,168.230343 L150.586455,168.230343 C154.60506,168.230343 157.863427,164.982393 157.863427,160.975603 L157.863427,91.0747196 C157.863427,87.46251 155.214401,84.4671111 151.748155,83.9119885" id="Fill-27" fill-opacity="0.1" fill="#000000"></path>
                    <path d="M160.699846,94.8444887 L160.699846,164.745303 C160.699846,168.752022 157.441409,171.999972 153.422874,171.999972 L34.4158861,171.999972 C30.7931347,171.999972 27.7879941,169.360659 27.2322705,165.904312 C27.1703833,165.527337 27.138914,165.139813 27.138914,164.745303 L27.138914,94.8444887 C27.138914,90.8376991 30.3973507,87.5897495 34.4158861,87.5897495 L153.422874,87.5897495 C153.818658,87.5897495 154.206312,87.6211175 154.584574,87.6816877 C158.05082,88.2368104 160.699846,91.2322791 160.699846,94.8444887" id="Fill-29" fill="#2D80C4"></path>
                    <path d="M55.5107648,125.731022 L40.3004514,125.731022 C39.3504157,125.731022 38.5802245,124.96331 38.5802245,124.016331 L38.5802245,111.803004 C38.5802245,110.856026 39.3504157,110.088314 40.3004514,110.088314 L55.5107648,110.088314 C56.4608005,110.088314 57.2309217,110.856026 57.2309217,111.803004 L57.2309217,124.016331 C57.2309217,124.96331 56.4608005,125.731022 55.5107648,125.731022" id="Fill-31" fill="#FFD524"></path>
                    <path d="M49.766017,123.023601 C50.7321728,122.409235 51.3748049,121.332104 51.3748049,120.107565 C51.3748049,120.062714 51.3722817,120.01898 51.3707398,119.974897 L56.7639709,119.974897 L56.7639709,123.023601 L49.766017,123.023601 Z M56.7639709,124.016338 C56.7639709,124.705107 56.2017993,125.265539 55.5107368,125.265539 L48.1772041,125.265539 L48.1772041,123.5651 L56.7639709,123.5651 L56.7639709,124.016338 Z M40.3004234,125.265539 C39.609431,125.265539 39.0471893,124.705107 39.0471893,124.016338 L39.0471893,123.5651 L47.6340262,123.5651 L47.6340262,125.265539 L40.3004234,125.265539 Z M39.0471893,119.974897 L44.4395793,119.974897 C44.434533,120.107355 44.4360749,120.240093 44.4458171,120.372412 C44.5293613,121.483006 45.1498457,122.452829 46.0460543,123.023601 L39.0471893,123.023601 L39.0471893,119.974897 Z M39.0471893,116.385742 L44.5027281,116.385742 C44.573937,116.743575 44.7011457,117.089601 44.8812005,117.40859 C45.0560687,117.717939 45.0483591,118.10679 44.8606648,118.448555 C44.6900719,118.758322 44.570713,119.088839 44.502658,119.433398 L39.0471893,119.433398 L39.0471893,116.385742 Z M39.0471893,112.795749 L46.0460543,112.795749 C45.0791275,113.410324 44.4360048,114.487874 44.4360048,115.712623 C44.4360048,115.756566 44.4385981,115.800369 44.4402802,115.844312 L39.0471893,115.844312 L39.0471893,112.795749 Z M39.0471893,111.803011 C39.0471893,111.114173 39.609431,110.55381 40.3004234,110.55381 L47.6340262,110.55381 L47.6340262,112.254249 L39.0471893,112.254249 L39.0471893,111.803011 Z M55.5107368,110.55381 C56.2017993,110.55381 56.7639709,111.114173 56.7639709,111.803011 L56.7639709,115.844312 L51.0775639,115.844312 L51.0749707,115.844312 C50.9340948,115.84571 50.8188009,115.953996 50.8070262,116.091554 C50.7597873,116.450923 50.6477174,116.793945 50.4738304,117.111258 C50.1951626,117.618455 50.1886445,118.203898 50.4563786,118.677352 C50.6418301,119.005633 50.7602779,119.362697 50.8084981,119.739183 C50.8237772,119.856272 50.831627,119.980207 50.831627,120.107565 C50.831627,121.785019 49.39988,123.137825 47.6968946,123.015986 C46.2599612,122.916782 45.0952476,121.762873 44.9875232,120.332311 C44.972945,120.134182 44.9779913,119.934098 45.0024518,119.737856 C45.0480787,119.375342 45.1605691,119.029316 45.3369793,118.70879 C45.6156471,118.201663 45.6220951,117.61615 45.3545012,117.142905 C45.1089847,116.707875 44.9792528,116.213323 44.9792528,115.712623 C44.9792528,114.1051 46.2919912,112.796587 47.905545,112.795819 C47.9476676,112.795749 47.9894397,112.785828 48.0270767,112.767035 C48.1191016,112.721276 48.1772041,112.627451 48.1772041,112.524964 L48.1772041,110.55381 L55.5107368,110.55381 Z M56.7639709,119.433398 L51.3077312,119.433398 C51.2364522,119.074447 51.1103648,118.731425 50.9296793,118.411528 C50.7546709,118.102179 50.7623805,117.713258 50.9504252,117.371144 C51.1203873,117.061027 51.2404472,116.730581 51.3087825,116.385742 L56.7639709,116.385742 L56.7639709,119.433398 Z M55.5107368,110.088321 L48.1772041,110.088321 L47.6340262,110.088321 L40.3004234,110.088321 C39.3503877,110.088321 38.5800562,110.856033 38.5800562,111.803011 L38.5800562,112.254249 L38.5800562,112.795749 L38.5800562,115.844312 L38.5800562,115.844312 L38.5800562,116.385742 L38.5800562,116.385742 L38.5800562,119.433398 L38.5800562,119.433398 L38.5800562,119.974897 L38.5800562,119.974897 L38.5800562,123.023601 L38.5800562,123.5651 L38.5800562,124.016338 C38.5800562,124.963316 39.3503877,125.731029 40.3004234,125.731029 L47.6340262,125.731029 L48.1772041,125.731029 L55.5107368,125.731029 C56.4608426,125.731029 57.2309637,124.963316 57.2309637,124.016338 L57.2309637,123.5651 L57.2309637,123.023601 L57.2309637,111.803011 C57.2309637,110.856033 56.4608426,110.088321 55.5107368,110.088321 L55.5107368,110.088321 Z" id="Fill-33" fill="#B3B3B3"></path>
                    <polygon id="Fill-35" fill="#FFFFFF" points="38.5802945 133.125604 38.5802945 134.303755 39.7398217 133.594657 39.7398217 140.473678 40.882598 140.473678 40.882598 132.355097 39.7398217 132.355097"></polygon>
                    <path d="M46.4786201,136.196593 C46.6914758,135.906247 46.8575831,135.604723 46.9771523,135.292091 C47.0966515,134.979389 47.1564361,134.679752 47.1564361,134.393108 L47.1564361,134.387449 C47.1564361,133.940822 47.0667942,133.559306 46.8875105,133.242902 C46.7082968,132.926497 46.4468705,132.685474 46.1033017,132.519761 C45.7596628,132.354189 45.3451655,132.271263 44.8597397,132.271263 C44.4302436,132.271263 44.0511405,132.357891 43.7226405,132.530939 C43.3939303,132.704057 43.1260559,132.95528 42.9187372,133.284749 C42.7114885,133.614148 42.5742573,134.011592 42.5070434,134.476873 L42.5070434,134.482462 L43.6889985,134.482462 L43.6889985,134.476873 C43.7337844,134.119529 43.8588906,133.843085 44.0643169,133.647682 C44.2696031,133.452278 44.5385288,133.354541 44.8709537,133.354541 C45.2218816,133.354541 45.4926996,133.443895 45.6831974,133.622531 C45.8736251,133.801238 45.9688739,134.052531 45.9688739,134.376341 L45.9688739,134.387449 C45.9688739,134.588512 45.9231068,134.805363 45.8316427,135.038003 C45.7400383,135.270644 45.6121988,135.49497 45.4479138,135.710843 L42.6078992,139.485342 L42.6078992,140.473678 L47.201222,140.473678 L47.201222,139.39047 L44.1203168,139.39047 L46.4786201,136.196593 Z" id="Fill-37" fill="#FFFFFF"></path>
                    <path d="M51.6993449,136.235688 C52.1026282,136.09799 52.4144474,135.878344 52.6348024,135.57682 C52.8551574,135.275296 52.9652649,134.921655 52.9652649,134.515967 L52.9652649,134.381972 C52.9652649,133.711857 52.7729448,133.192573 52.3883749,132.824122 C52.0036647,132.4556 51.4602765,132.271304 50.7582804,132.271304 C50.3473576,132.271304 49.9833232,132.353252 49.6659671,132.517009 C49.3484709,132.680835 49.0861335,132.92095 48.8789549,133.237285 C48.6716362,133.55369 48.5306902,133.933389 48.455977,134.376383 L49.6155742,134.376383 C49.6640047,134.149332 49.7415915,133.960426 49.8479843,133.809594 C49.9544472,133.658832 50.0841791,133.547192 50.2373202,133.474606 C50.3903913,133.401949 50.564068,133.365691 50.7582804,133.365691 C51.0979944,133.365691 51.360472,133.453228 51.5452926,133.628162 C51.7301133,133.803166 51.8225587,134.050687 51.8225587,134.370794 L51.8225587,134.622018 C51.8225587,134.968183 51.7348092,135.236174 51.5593101,135.426058 C51.383741,135.615943 51.1372434,135.710815 50.8198873,135.710815 L50.2429272,135.710815 L50.2429272,136.794024 L50.8198873,136.794024 C51.1820994,136.794024 51.4621689,136.904825 51.6600959,137.126287 C51.858023,137.347819 51.9569865,137.66136 51.9569865,138.067118 L51.9569865,138.312752 C51.9569865,138.677571 51.852416,138.960512 51.643345,139.161504 C51.4341339,139.362497 51.1410281,139.463028 50.7638874,139.463028 C50.524819,139.463028 50.3165892,139.4267 50.1392678,139.354183 C49.9618764,139.281597 49.8172159,139.170866 49.705146,139.02192 C49.5931463,138.873045 49.5203254,138.68323 49.4866834,138.452336 L48.3215492,138.452336 C48.3775491,138.8954 48.5110658,139.274122 48.7220991,139.58864 C48.9329923,139.903228 49.2122208,140.143343 49.5595043,140.308986 C49.9067877,140.474559 50.3081787,140.557345 50.7638874,140.557345 C51.2568126,140.557345 51.6778281,140.469948 52.0270739,140.294944 C52.3761796,140.120079 52.6423018,139.865014 52.8252301,139.530026 C53.0081584,139.194968 53.0997627,138.791166 53.0997627,138.318411 L53.0997627,138.184416 C53.0997627,137.659543 52.97739,137.227727 52.7328548,136.889036 C52.4882495,136.550276 52.1436995,136.332516 51.6993449,136.235688" id="Fill-39" fill="#FFFFFF"></path>
                    <polygon id="Fill-41" fill="#FFFFFF" points="59.2391591 135.699645 58.1244178 135.699645 58.1244178 138.173175 55.8557564 138.173175 58.5221642 132.360665 57.3458161 132.360665 54.6121943 138.240173 54.6121943 139.228509 58.1244178 139.228509 58.1244178 140.479246 59.2391591 140.479246 59.2391591 139.228509 59.8497611 139.228509 59.8497611 138.173175 59.2391591 138.173175"></polygon>
                    <path d="M71.1550879,135.191581 C70.8208407,134.997994 70.4184685,134.901235 69.9479012,134.901235 C69.7649028,134.901235 69.5856191,134.932882 69.4101901,134.996107 C69.2345509,135.059402 69.0758729,135.148825 68.9340158,135.264167 L68.9340158,133.438257 L71.9421001,133.438257 L71.9421001,132.355048 L67.7912396,132.355048 L67.7912396,136.632133 L68.83323,136.632133 C68.9713024,136.431141 69.1319429,136.27479 69.3149412,136.16308 C69.4978696,136.051441 69.6882972,135.995621 69.8862943,135.995621 C70.252221,135.995621 70.5351642,136.11753 70.7349135,136.361279 C70.9346628,136.605167 71.0346075,136.946721 71.0346075,137.385873 L71.0346075,138.067097 C71.0346075,138.510161 70.9346628,138.853532 70.7349135,139.09728 C70.5351642,139.341098 70.252221,139.463077 69.8862943,139.463077 C69.5688682,139.463077 69.3111565,139.380221 69.1132996,139.214509 C68.9152324,139.048936 68.7958033,138.817204 68.7547321,138.519383 L68.7547321,138.513794 L67.6120259,138.513794 L67.6120259,138.519383 C67.6792398,138.947496 67.8127564,139.314132 68.0125758,139.619358 C68.212255,139.924585 68.471859,140.157295 68.7911776,140.317279 C69.1104961,140.477332 69.4754416,140.557394 69.8862943,140.557394 C70.3680756,140.557394 70.7806105,140.459657 71.1242494,140.264253 C71.4678182,140.06885 71.7292444,139.785071 71.9084581,139.412777 C72.0877419,139.040622 72.1773837,138.591969 72.1773837,138.067097 L72.1773837,137.385873 C72.1773837,136.861001 72.0905454,136.412557 71.9168686,136.040263 C71.7432619,135.668039 71.4892649,135.385168 71.1550879,135.191581" id="Fill-43" fill="#FFFFFF"></path>
                    <path d="M77.090032,138.173196 C77.090032,138.586359 76.9919797,138.90465 76.795945,139.127999 C76.5998402,139.351347 76.3206117,139.463056 75.9584698,139.463056 C75.5999723,139.463056 75.3227063,139.352325 75.1266016,139.130793 C74.9305669,138.909331 74.8325846,138.591948 74.8325846,138.178785 L74.8325846,138.173196 C74.8325846,137.719094 74.925871,137.367339 75.1126541,137.117932 C75.2993672,136.868525 75.5626157,136.743752 75.9024699,136.743752 C76.2833953,136.743752 76.5765011,136.867617 76.7819275,137.115068 C76.9872838,137.362658 77.090032,137.713505 77.090032,138.167607 L77.090032,138.173196 Z M77.3084947,135.934192 C77.0059972,135.744307 76.643715,135.649435 76.2217183,135.649435 C75.98272,135.649435 75.7736491,135.697779 75.5943653,135.794608 C75.5374543,135.825347 75.4864306,135.861466 75.4381404,135.900099 L77.2580317,132.355097 L76.0256837,132.355097 L74.2555544,135.850427 C74.2294118,135.902544 74.2032692,135.955639 74.1771265,136.009503 C74.1509839,136.063576 74.1267337,136.118418 74.1043057,136.174307 C73.9698779,136.494414 73.8671297,136.820111 73.7962011,137.151396 C73.7252726,137.482751 73.6898083,137.799155 73.6898083,138.100609 L73.6898083,138.106198 C73.6898083,138.623596 73.778469,139.065682 73.9558604,139.432247 C74.1331817,139.798952 74.3918746,140.07819 74.7317287,140.269891 C75.0715128,140.461592 75.4804031,140.557373 75.9584698,140.557373 C76.4364663,140.557373 76.8463379,140.460684 77.1880143,140.267097 C77.5296908,140.07351 77.7892948,139.790569 77.9666161,139.418345 C78.1440075,139.04612 78.2327382,138.599493 78.2327382,138.078323 L78.2327382,138.072735 C78.2327382,137.562743 78.1543103,137.126315 77.9974546,136.763313 C77.8405988,136.40038 77.6109922,136.124007 77.3084947,135.934192 L77.3084947,135.934192 Z" id="Fill-45" fill="#FFFFFF"></path>
                    <polygon id="Fill-47" fill="#FFFFFF" points="79.5211282 134.605258 80.6638344 134.605258 80.6638344 133.438285 82.7364611 133.438285 80.6302625 140.473658 81.8457895 140.473658 83.9519882 133.371287 83.9519882 132.355076 79.5211282 132.355076"></polygon>
                    <path d="M89.2399759,138.21788 C89.2399759,138.463584 89.1848171,138.680435 89.0747797,138.868434 C88.9645321,139.056362 88.8086576,139.202513 88.6070159,139.306677 C88.4053743,139.410911 88.1719129,139.463028 87.9068421,139.463028 C87.641561,139.463028 87.4082398,139.411889 87.206528,139.309472 C87.0048864,139.207124 86.8489417,139.062929 86.7388343,138.876747 C86.6286568,138.690635 86.5735681,138.474762 86.5735681,138.229058 L86.5735681,138.145293 C86.5735681,137.895956 86.6286568,137.67624 86.7388343,137.486426 C86.8489417,137.296541 87.0048864,137.149551 87.206528,137.045317 C87.4082398,136.941153 87.641561,136.889036 87.9068421,136.889036 C88.1719129,136.889036 88.4053743,136.941153 88.6070159,137.045317 C88.8086576,137.149551 88.9645321,137.295703 89.0747797,137.483631 C89.1848171,137.671629 89.2399759,137.890367 89.2399759,138.139704 L89.2399759,138.21788 Z M86.7472448,134.521556 C86.7472448,134.290733 86.7957454,134.087923 86.8928866,133.912919 C86.9899577,133.737985 87.1262078,133.603012 87.301847,133.50807 C87.477346,133.413197 87.6789877,133.365691 87.9068421,133.365691 C88.1345563,133.365691 88.3361278,133.413197 88.511697,133.50807 C88.6872661,133.603012 88.8235862,133.737985 88.9206574,133.912919 C89.0177285,134.087923 89.0662991,134.288916 89.0662991,134.515967 L89.0662991,134.594143 C89.0662991,134.832372 89.0177285,135.042726 88.9206574,135.225066 C88.8235862,135.407405 88.6872661,135.547967 88.511697,135.646612 C88.3361278,135.745257 88.1345563,135.79458 87.9068421,135.79458 C87.6789877,135.79458 87.477346,135.745257 87.301847,135.646612 C87.1262078,135.547967 86.9899577,135.408383 86.8928866,135.22779 C86.7957454,135.047337 86.7472448,134.839777 86.7472448,134.605251 L86.7472448,134.521556 Z M89.2399759,136.213402 C89.5312594,136.060754 89.7655619,135.837405 89.9429533,135.543356 C90.1203447,135.249308 90.2090754,134.93472 90.2090754,134.599662 L90.2090754,134.404258 C90.2090754,133.979917 90.1138265,133.606715 89.9233989,133.284791 C89.7329011,132.962798 89.4640456,132.713391 89.116692,132.53657 C88.7694086,132.35975 88.3661253,132.271304 87.9068421,132.271304 C87.4474888,132.271304 87.0441354,132.35975 86.6968519,132.53657 C86.3495685,132.713391 86.0806429,132.962798 85.8902152,133.284791 C85.6997174,133.606715 85.6045387,133.979917 85.6045387,134.404258 L85.6045387,134.599662 C85.6045387,134.927244 85.6913069,135.238968 85.8649837,135.534973 C86.0385904,135.830838 86.2691782,136.056981 86.5568172,136.213402 C86.2168929,136.395811 85.9452339,136.665618 85.7417699,137.022962 C85.5381658,137.380375 85.4364689,137.761961 85.4364689,138.167579 L85.4364689,138.301574 C85.4364689,138.752044 85.5381658,139.147532 85.7417699,139.488179 C85.9452339,139.828755 86.2337139,140.092065 86.60721,140.278247 C86.9806361,140.464359 87.4138468,140.557345 87.9068421,140.557345 C88.3997673,140.557345 88.8329079,140.464359 89.206404,140.278247 C89.57976,140.092065 89.86824,139.828755 90.0718441,139.488179 C90.2753081,139.147532 90.3771452,138.752044 90.3771452,138.301574 L90.3771452,138.167579 C90.3771452,137.761961 90.2734858,137.381283 90.0662371,137.025826 C89.8589885,136.670369 89.5835447,136.399514 89.2399759,136.213402 L89.2399759,136.213402 Z" id="Fill-49" fill="#FFFFFF"></path>
                    <path d="M101.567641,134.716939 C101.567641,135.156231 101.469588,135.496807 101.273554,135.738739 C101.077519,135.980741 100.800253,136.101672 100.441755,136.101672 C100.079473,136.101672 99.8002448,135.981649 99.6042101,135.741534 C99.4081754,135.501418 99.3101231,135.16175 99.3101231,134.722528 L99.3101231,134.716939 C99.3101231,134.285123 99.4081754,133.952021 99.6042101,133.717495 C99.8002448,133.482968 100.079473,133.36567 100.441755,133.36567 C100.800253,133.36567 101.077519,133.482968 101.273554,133.717495 C101.469588,133.952021 101.567641,134.283306 101.567641,134.71135 L101.567641,134.716939 Z M101.668426,132.567219 C101.328572,132.369998 100.919682,132.271284 100.441755,132.271284 C99.9636187,132.271284 99.5538172,132.368112 99.2121408,132.56163 C98.8704643,132.755217 98.6107902,133.038158 98.4334689,133.410382 C98.2560775,133.782606 98.1674169,134.231189 98.1674169,134.756062 L98.1674169,134.761651 C98.1674169,135.234336 98.2486483,135.650364 98.411111,136.009524 C98.5735037,136.368824 98.8022692,136.647084 99.0972674,136.844304 C99.3922656,137.041594 99.733942,137.140239 100.122437,137.140239 C100.380078,137.140239 100.603167,137.100278 100.791772,137.020216 C100.863472,136.989756 100.92606,136.950634 100.983952,136.90704 L99.1700883,140.47363 L100.402506,140.47363 L102.138924,136.994996 C102.164996,136.946721 102.189387,136.897329 102.211744,136.847098 C102.234243,136.796798 102.2566,136.747475 102.278958,136.699131 C102.417101,136.375251 102.523564,136.048647 102.598277,135.719248 C102.67299,135.389779 102.710347,135.079872 102.710347,134.789526 L102.710347,134.783937 C102.710347,134.255431 102.621616,133.803145 102.444295,133.427079 C102.266903,133.051152 102.00821,132.764578 101.668426,132.567219 L101.668426,132.567219 Z" id="Fill-51" fill="#FFFFFF"></path>
                    <polygon id="Fill-53" fill="#FFFFFF" points="103.886688 133.125604 103.886688 134.303755 105.046215 133.594657 105.046215 140.473678 106.188991 140.473678 106.188991 132.355097 105.046215 132.355097"></polygon>
                    <path d="M111.785013,136.196593 C111.997869,135.906247 112.163976,135.604723 112.283546,135.292091 C112.403045,134.979389 112.462829,134.679752 112.462829,134.393108 L112.462829,134.387449 C112.462829,133.940822 112.373188,133.559306 112.193904,133.242902 C112.01462,132.926497 111.753264,132.685474 111.409765,132.519761 C111.066056,132.354189 110.651559,132.271263 110.166133,132.271263 C109.736637,132.271263 109.357534,132.357891 109.029034,132.530939 C108.700324,132.704057 108.432449,132.95528 108.225201,133.284749 C108.017882,133.614148 107.880721,134.011592 107.813437,134.476873 L107.813437,134.482462 L108.995392,134.482462 L108.995392,134.476873 C109.040178,134.119529 109.165284,133.843085 109.37071,133.647682 C109.575996,133.452278 109.844852,133.354541 110.177417,133.354541 C110.528275,133.354541 110.799163,133.443895 110.989591,133.622531 C111.180018,133.801238 111.275337,134.052531 111.275337,134.376341 L111.275337,134.387449 C111.275337,134.588512 111.2295,134.805363 111.138036,135.038003 C111.046502,135.270644 110.918662,135.49497 110.754307,135.710843 L107.914222,139.485342 L107.914222,140.473678 L112.507685,140.473678 L112.507685,139.39047 L109.42678,139.39047 L111.785013,136.196593 Z" id="Fill-55" fill="#FFFFFF"></path>
                    <path d="M117.005773,136.235688 C117.409057,136.09799 117.720806,135.878344 117.941231,135.57682 C118.161516,135.275296 118.271693,134.921655 118.271693,134.515967 L118.271693,134.381972 C118.271693,133.711857 118.079303,133.192573 117.694733,132.824122 C117.310093,132.4556 116.766705,132.271304 116.064639,132.271304 C115.653856,132.271304 115.289752,132.353252 114.972325,132.517009 C114.654899,132.680835 114.392562,132.92095 114.185313,133.237285 C113.978065,133.55369 113.837049,133.933389 113.762405,134.376383 L114.922003,134.376383 C114.970433,134.149332 115.04795,133.960426 115.154413,133.809594 C115.260876,133.658832 115.390537,133.547192 115.543749,133.474606 C115.69682,133.401949 115.870496,133.365691 116.064639,133.365691 C116.404423,133.365691 116.66683,133.453228 116.851721,133.628162 C117.036542,133.803166 117.128987,134.050687 117.128987,134.370794 L117.128987,134.622018 C117.128987,134.968183 117.041238,135.236174 116.865739,135.426058 C116.690099,135.615943 116.443602,135.710815 116.126246,135.710815 L115.549356,135.710815 L115.549356,136.794024 L116.126246,136.794024 C116.488458,136.794024 116.768527,136.904825 116.966524,137.126287 C117.164451,137.347819 117.263415,137.66136 117.263415,138.067118 L117.263415,138.312752 C117.263415,138.677571 117.158844,138.960512 116.949703,139.161504 C116.740562,139.362497 116.447386,139.463028 116.070246,139.463028 C115.831247,139.463028 115.623018,139.4267 115.445696,139.354183 C115.268305,139.281597 115.123644,139.170866 115.011574,139.02192 C114.899505,138.873045 114.826684,138.68323 114.793112,138.452336 L113.627978,138.452336 C113.683907,138.8954 113.817494,139.274122 114.028528,139.58864 C114.239351,139.903228 114.518649,140.143343 114.865933,140.308986 C115.213216,140.474559 115.614607,140.557345 116.070246,140.557345 C116.563241,140.557345 116.984186,140.469948 117.333432,140.294944 C117.682608,140.120079 117.94866,139.865014 118.131658,139.530026 C118.314587,139.194968 118.406121,138.791166 118.406121,138.318411 L118.406121,138.184416 C118.406121,137.659543 118.283748,137.227727 118.039213,136.889036 C117.794678,136.550276 117.450128,136.332516 117.005773,136.235688" id="Fill-57" fill="#FFFFFF"></path>
                    <polygon id="Fill-59" fill="#FFFFFF" points="130.907462 135.699645 129.792721 135.699645 129.792721 138.173175 127.52406 138.173175 130.190468 132.360665 129.014049 132.360665 126.280428 138.240173 126.280428 139.228509 129.792721 139.228509 129.792721 140.479246 130.907462 140.479246 130.907462 139.228509 131.517994 139.228509 131.517994 138.173175 130.907462 138.173175"></polygon>
                    <path d="M136.461481,135.191581 C136.127234,134.997994 135.724862,134.901235 135.254295,134.901235 C135.071296,134.901235 134.892012,134.932882 134.716583,134.996107 C134.541014,135.059402 134.382336,135.148825 134.240479,135.264167 L134.240479,133.438257 L137.248493,133.438257 L137.248493,132.355048 L133.097703,132.355048 L133.097703,136.632133 L134.139623,136.632133 C134.277696,136.431141 134.438336,136.27479 134.621335,136.16308 C134.804263,136.051441 134.994691,135.995621 135.192688,135.995621 C135.558614,135.995621 135.841487,136.11753 136.041377,136.361279 C136.241056,136.605167 136.341001,136.946721 136.341001,137.385873 L136.341001,138.067097 C136.341001,138.510161 136.241056,138.853532 136.041377,139.09728 C135.841487,139.341098 135.558614,139.463077 135.192688,139.463077 C134.875262,139.463077 134.61755,139.380221 134.419693,139.214509 C134.221696,139.048936 134.102267,138.817204 134.061195,138.519383 L134.061195,138.513794 L132.918419,138.513794 L132.918419,138.519383 C132.985633,138.947496 133.11915,139.314132 133.318969,139.619358 C133.518718,139.924585 133.778322,140.157295 134.097571,140.317279 C134.416889,140.477332 134.781835,140.557394 135.192688,140.557394 C135.674469,140.557394 136.087004,140.459657 136.430713,140.264253 C136.774212,140.06885 137.035638,139.785071 137.214922,139.412777 C137.394205,139.040622 137.483777,138.591969 137.483777,138.067097 L137.483777,137.385873 C137.483777,136.861001 137.396939,136.412557 137.223262,136.040263 C137.049655,135.668039 136.795658,135.385168 136.461481,135.191581" id="Fill-61" fill="#FFFFFF"></path>
                    <path d="M142.396397,138.173196 C142.396397,138.586359 142.298415,138.90465 142.10238,139.127999 C141.906276,139.351347 141.627047,139.463056 141.264835,139.463056 C140.906338,139.463056 140.629072,139.352325 140.433037,139.130793 C140.237002,138.909331 140.13895,138.591948 140.13895,138.178785 L140.13895,138.173196 C140.13895,137.719094 140.232236,137.367339 140.419019,137.117932 C140.605732,136.868525 140.869051,136.743752 141.208905,136.743752 C141.589761,136.743752 141.882937,136.867617 142.088293,137.115068 C142.293649,137.362658 142.396397,137.713505 142.396397,138.167607 L142.396397,138.173196 Z M142.61486,135.934192 C142.312362,135.744307 141.95015,135.649435 141.528154,135.649435 C141.289155,135.649435 141.080084,135.697779 140.900801,135.794608 C140.84389,135.825347 140.792796,135.861466 140.744576,135.900099 L142.564397,132.355097 L141.332049,132.355097 L139.56199,135.850427 C139.535847,135.902544 139.509634,135.955639 139.483492,136.009503 C139.457349,136.063576 139.433169,136.118418 139.410741,136.174307 C139.276243,136.494414 139.173565,136.820111 139.102637,137.151396 C139.031638,137.482751 138.996174,137.799155 138.996174,138.100609 L138.996174,138.106198 C138.996174,138.623596 139.084904,139.065682 139.262296,139.432247 C139.439617,139.798952 139.69831,140.07819 140.038164,140.269891 C140.377878,140.461592 140.786839,140.557373 141.264835,140.557373 C141.742902,140.557373 142.152703,140.460684 142.49445,140.267097 C142.836126,140.07351 143.09573,139.790569 143.273122,139.418345 C143.450373,139.04612 143.539174,138.599493 143.539174,138.078323 L143.539174,138.072735 C143.539174,137.562743 143.460746,137.126315 143.30389,136.763313 C143.147034,136.40038 142.917428,136.124007 142.61486,135.934192 L142.61486,135.934192 Z" id="Fill-63" fill="#FFFFFF"></path>
                    <polygon id="Fill-65" fill="#FFFFFF" points="144.827571 132.355076 144.827571 134.605258 145.970277 134.605258 145.970277 133.438285 148.042904 133.438285 145.936705 140.473658 147.152232 140.473658 149.258501 133.371287 149.258501 132.355076"></polygon>
                    <path d="M38.7539363,163.926493 C38.6381518,163.701189 38.5803296,163.440115 38.5803296,163.143411 L38.5803296,162.047138 C38.5803296,161.750435 38.6381518,161.489431 38.7539363,161.264056 C38.8697208,161.038752 39.0328143,160.864237 39.2432169,160.740651 C39.4536195,160.616995 39.697594,160.555237 39.9750703,160.555237 C40.204747,160.555237 40.4160607,160.604211 40.6090816,160.702157 C40.8020324,160.800173 40.9633037,160.938989 41.0928253,161.118464 C41.222347,161.297939 41.3100965,161.505848 41.3560739,161.742191 L40.7799549,161.742191 C40.7450513,161.617627 40.6866684,161.506337 40.6049464,161.408321 C40.5231544,161.310305 40.4271345,161.234784 40.3168869,161.181619 C40.2066393,161.128594 40.0926771,161.101977 39.9750703,161.101977 C39.8114861,161.101977 39.6681573,161.141379 39.5450837,161.220113 C39.42194,161.298847 39.3263407,161.409229 39.2583558,161.551189 C39.190371,161.693218 39.1563785,161.858511 39.1563785,162.047138 L39.1563785,163.143411 C39.1563785,163.330222 39.190371,163.495166 39.2583558,163.637964 C39.3263407,163.780831 39.42194,163.891213 39.5450837,163.969109 C39.6681573,164.046935 39.8114861,164.085918 39.9750703,164.085918 C40.0944994,164.085918 40.2088821,164.061117 40.3182186,164.011655 C40.427555,163.962193 40.5231544,163.888977 40.6049464,163.791869 C40.6866684,163.694761 40.7450513,163.579419 40.7799549,163.445704 L41.3560739,163.445704 C41.3100965,163.681907 41.2218564,163.889886 41.0914236,164.069361 C40.9609207,164.248906 40.7992289,164.387652 40.6062781,164.485598 C40.4133273,164.583684 40.2029247,164.632657 39.9750703,164.632657 C39.697594,164.632657 39.4536195,164.571249 39.2432169,164.448571 C39.0328143,164.325824 38.8697208,164.151798 38.7539363,163.926493 Z" id="Fill-67" fill="#FFFFFF"></path>
                    <mask id="mask-6" fill="white">
                        <use xlink:href="#path-5"></use>
                    </mask>
                    <g id="Clip-70"></g>
                    <path d="M42.2849642,163.714937 L44.393686,163.714937 L44.393686,163.181891 L42.2849642,163.181891 L42.2849642,163.714937 Z M43.0815784,160.596442 L43.5612571,160.596442 L45.038701,164.591425 L44.4323042,164.591425 L43.3214178,161.368486 L42.2106014,164.591425 L41.6041345,164.591425 L43.0815784,160.596442 Z" id="Fill-69" fill="#FFFFFF" mask="url(#mask-6)"></path>
                    <path d="M46.9819954,162.778026 L47.5415738,162.651576 L48.5669535,164.591432 L47.899931,164.591432 L46.9819954,162.778026 Z M45.8904531,162.368636 L47.2576494,162.368636 C47.3642525,162.368636 47.4588705,162.342927 47.5415738,162.291648 C47.624277,162.240439 47.6881267,162.167643 47.7331228,162.07326 C47.778119,161.978946 47.8006872,161.870381 47.8006872,161.747633 C47.8006872,161.624956 47.778119,161.51639 47.7331228,161.422077 C47.6881267,161.327693 47.6246975,161.254897 47.5429755,161.203619 C47.4611834,161.15234 47.3660747,161.126701 47.2576494,161.126701 L45.8904531,161.126701 L45.8904531,160.593654 L47.2356419,160.593654 C47.4671409,160.593654 47.6706749,160.6413 47.8461739,160.736522 C48.0216029,160.831814 48.1576427,160.966857 48.254083,161.141791 C48.3505935,161.316725 48.3988137,161.518696 48.3988137,161.747633 C48.3988137,161.976641 48.3501729,162.178611 48.2527514,162.353476 C48.1553298,162.52848 48.0188695,162.663523 47.8434405,162.758814 C47.6679415,162.854036 47.4653186,162.901682 47.2356419,162.901682 L45.8904531,162.901682 L45.8904531,162.368636 Z M45.6451469,164.591432 L46.2074587,164.591432 L46.2074587,160.593654 L45.6451469,160.593654 L45.6451469,164.591432 Z" id="Fill-71" fill="#FFFFFF" mask="url(#mask-6)"></path>
                    <path d="M49.7054124,164.058393 L50.6122742,164.058393 C50.9081134,164.058393 51.1373695,163.981894 51.2999725,163.828966 C51.4626455,163.675968 51.543947,163.460305 51.543947,163.181905 L51.543947,162.00592 C51.543947,161.72752 51.4626455,161.511856 51.2999725,161.358859 C51.1373695,161.205931 50.9081134,161.129432 50.6122742,161.129432 L49.7054124,161.129432 L49.7054124,160.596386 L50.5957335,160.596386 C50.9172949,160.596386 51.1920378,160.652276 51.4198921,160.764055 C51.6477465,160.875694 51.8214233,161.038752 51.9409224,161.253088 C52.0603515,161.467354 52.120066,161.725634 52.120066,162.027926 L52.120066,163.159968 C52.120066,163.462191 52.0603515,163.720401 51.9409224,163.934737 C51.8214233,164.149073 51.647326,164.312131 51.4185605,164.42377 C51.189795,164.535549 50.9145615,164.591439 50.5930001,164.591439 L49.7054124,164.591439 L49.7054124,164.058393 Z M49.3249776,164.591439 L49.8872894,164.591439 L49.8872894,160.596386 L49.3249776,160.596386 L49.3249776,164.591439 Z" id="Fill-72" fill="#FFFFFF" mask="url(#mask-6)"></path>
                    <path d="M55.2514271,164.591495 L55.8137389,164.591495 L55.8137389,160.596442 L55.2514271,160.596442 L55.2514271,164.591495 Z M53.3246524,162.890637 L55.5491587,162.890637 L55.5491587,162.357591 L53.3246524,162.357591 L53.3246524,162.890637 Z M52.9745655,164.591495 L53.5368773,164.591495 L53.5368773,160.596442 L52.9745655,160.596442 L52.9745655,164.591495 Z" id="Fill-73" fill="#FFFFFF" mask="url(#mask-6)"></path>
                    <path d="M58.5688425,163.969088 C58.6946495,163.894895 58.7921412,163.789613 58.8610371,163.653173 C58.9299331,163.516662 58.9644162,163.358705 58.9644162,163.17909 L58.9644162,162.008623 C58.9644162,161.829148 58.9299331,161.671121 58.8610371,161.53468 C58.7921412,161.39824 58.6946495,161.292888 58.5688425,161.218765 C58.4429654,161.144502 58.2973236,161.107475 58.1319172,161.107475 C57.9665107,161.107475 57.8208689,161.144502 57.6950619,161.218765 C57.5691147,161.292888 57.4717632,161.39824 57.4028673,161.53468 C57.3339012,161.671121 57.2994882,161.829148 57.2994882,162.008623 L57.2994882,163.17909 C57.2994882,163.358705 57.3339012,163.516662 57.4028673,163.653173 C57.4717632,163.789613 57.5691147,163.894895 57.6950619,163.969088 C57.8208689,164.043281 57.9665107,164.080378 58.1319172,164.080378 C58.2973236,164.080378 58.4429654,164.043281 58.5688425,163.969088 M57.3931952,164.449948 C57.1799891,164.328108 57.0150733,164.155899 56.8984477,163.933319 C56.781682,163.710809 56.7233692,163.452948 56.7233692,163.159948 L56.7233692,162.027905 C56.7233692,161.734904 56.781682,161.476974 56.8984477,161.254464 C57.0150733,161.031884 57.1799891,160.859744 57.3931952,160.737905 C57.6064013,160.616136 57.8525485,160.555216 58.1319172,160.555216 C58.4112157,160.555216 58.6575031,160.616136 58.8706391,160.737905 C59.0838452,160.859744 59.248761,161.031884 59.3654567,161.254464 C59.4821523,161.476974 59.5404651,161.734904 59.5404651,162.027905 L59.5404651,163.159948 C59.5404651,163.452948 59.4821523,163.710809 59.3654567,163.933319 C59.248761,164.155899 59.0838452,164.328108 58.8706391,164.449948 C58.6575031,164.571717 58.4112157,164.632636 58.1319172,164.632636 C57.8525485,164.632636 57.6064013,164.571717 57.3931952,164.449948" id="Fill-74" fill="#FFFFFF" mask="url(#mask-6)"></path>
                    <path d="M60.6761275,164.591425 L62.9695298,164.591425 L62.9695298,164.058379 L60.6761275,164.058379 L60.6761275,164.591425 Z M60.3950066,164.591495 L60.9573184,164.591495 L60.9573184,160.596442 L60.3950066,160.596442 L60.3950066,164.591495 Z" id="Fill-75" fill="#FFFFFF" mask="url(#mask-6)"></path>
                    <path d="M64.0114712,164.058393 L64.918333,164.058393 C65.2142423,164.058393 65.4434985,163.981894 65.6061014,163.828966 C65.7687043,163.675968 65.8500058,163.460305 65.8500058,163.181905 L65.8500058,162.00592 C65.8500058,161.72752 65.7687043,161.511856 65.6061014,161.358859 C65.4434985,161.205931 65.2142423,161.129432 64.918333,161.129432 L64.0114712,161.129432 L64.0114712,160.596386 L64.9018625,160.596386 C65.2234238,160.596386 65.4980966,160.652276 65.7260211,160.764055 C65.9538053,160.875694 66.1274821,161.038752 66.2469812,161.253088 C66.3664103,161.467354 66.4261248,161.725634 66.4261248,162.027926 L66.4261248,163.159968 C66.4261248,163.462191 66.3664103,163.720401 66.2469812,163.934737 C66.1274821,164.149073 65.9534549,164.312131 65.7246193,164.42377 C65.4958538,164.535549 65.2206203,164.591439 64.899059,164.591439 L64.0114712,164.591439 L64.0114712,164.058393 Z M63.6311065,164.591439 L64.1934183,164.591439 L64.1934183,160.596386 L63.6311065,160.596386 L63.6311065,164.591439 Z" id="Fill-76" fill="#FFFFFF" mask="url(#mask-6)"></path>
                    <path d="M67.5535309,164.591425 L69.8551334,164.591425 L69.8551334,164.058379 L67.5535309,164.058379 L67.5535309,164.591425 Z M67.5535309,162.874149 L69.551935,162.874149 L69.551935,162.341103 L67.5535309,162.341103 L67.5535309,162.874149 Z M67.5535309,161.129488 L69.8551334,161.129488 L69.8551334,160.596442 L67.5535309,160.596442 L67.5535309,161.129488 Z M67.2806804,164.591495 L67.8429922,164.591495 L67.8429922,160.596442 L67.2806804,160.596442 L67.2806804,164.591495 Z" id="Fill-77" fill="#FFFFFF" mask="url(#mask-6)"></path>
                    <path d="M71.9914417,162.778026 L72.5510201,162.651576 L73.5763998,164.591432 L72.9093773,164.591432 L71.9914417,162.778026 Z M70.8998994,162.368636 L72.2670957,162.368636 C72.3736287,162.368636 72.4683169,162.342927 72.5510201,162.291648 C72.6337233,162.240439 72.697573,162.167643 72.7425691,162.07326 C72.7875653,161.978946 72.8101335,161.870381 72.8101335,161.747633 C72.8101335,161.624956 72.7875653,161.51639 72.7425691,161.422077 C72.697573,161.327693 72.6341438,161.254897 72.5523517,161.203619 C72.4706297,161.15234 72.375521,161.126701 72.2670957,161.126701 L70.8998994,161.126701 L70.8998994,160.593654 L72.2450882,160.593654 C72.4765872,160.593654 72.6801212,160.6413 72.8556202,160.736522 C73.0310492,160.831814 73.167089,160.966857 73.2635293,161.141791 C73.3600398,161.316725 73.40826,161.518696 73.40826,161.747633 C73.40826,161.976641 73.3596193,162.178611 73.2621977,162.353476 C73.1647761,162.52848 73.0283158,162.663523 72.8528868,162.758814 C72.6773878,162.854036 72.4747649,162.901682 72.2450882,162.901682 L70.8998994,162.901682 L70.8998994,162.368636 Z M70.6545932,164.591432 L71.216905,164.591432 L71.216905,160.593654 L70.6545932,160.593654 L70.6545932,164.591432 Z" id="Fill-78" fill="#FFFFFF" mask="url(#mask-6)"></path>
                    <polygon id="Fill-79" fill="#FFFFFF" mask="url(#mask-6)" points="75.8505 160.596407 76.3604565 160.596407 78.3203125 163.684722 78.2541499 163.756191 78.2541499 160.596407 78.8109949 160.596407 78.8109949 164.588665 78.2955015 164.588665 76.3411824 161.547018 76.407345 161.475619 76.407345 164.588665 75.8505 164.588665"></polygon>
                    <path d="M80.0431187,163.714937 L82.1517704,163.714937 L82.1517704,163.181891 L80.0431187,163.181891 L80.0431187,163.714937 Z M80.8397329,160.596442 L81.3193415,160.596442 L82.7968555,164.591425 L82.1903886,164.591425 L81.0795722,161.368486 L79.9686858,164.591425 L79.3622889,164.591425 L80.8397329,160.596442 Z" id="Fill-80" fill="#FFFFFF" mask="url(#mask-6)"></path>
                    <polygon id="Fill-81" fill="#FFFFFF" mask="url(#mask-6)" points="86.2837774 160.596407 86.8102745 160.596407 86.8102745 164.59146 86.2617699 164.59146 86.2617699 161.599205 86.2892442 161.775117 85.3024827 164.036407 84.9110441 164.036407 83.9242125 161.830028 83.951827 161.599205 83.951827 164.59146 83.4032523 164.59146 83.4032523 160.596407 83.9297494 160.596407 85.1067284 163.234113"></polygon>
                    <path d="M88.0754936,164.591425 L90.3771662,164.591425 L90.3771662,164.058379 L88.0754936,164.058379 L88.0754936,164.591425 Z M88.0754936,162.874149 L90.0739678,162.874149 L90.0739678,162.341103 L88.0754936,162.341103 L88.0754936,162.874149 Z M88.0754936,161.129488 L90.3771662,161.129488 L90.3771662,160.596442 L88.0754936,160.596442 L88.0754936,161.129488 Z M87.8025729,164.591495 L88.3648847,164.591495 L88.3648847,160.596442 L87.8025729,160.596442 L87.8025729,164.591495 Z" id="Fill-82" fill="#FFFFFF" mask="url(#mask-6)"></path>
                    <path d="M98.7683188,150.522076 L99.7134484,150.522076 L99.7134484,150.316752 L98.7683188,150.316752 L98.7683188,150.522076 Z M98.7683188,149.810184 L99.5889731,149.810184 L99.5889731,149.604859 L98.7683188,149.604859 L98.7683188,149.810184 Z M98.7683188,149.086903 L99.7134484,149.086903 L99.7134484,148.881579 L98.7683188,148.881579 L98.7683188,149.086903 Z M98.6561789,150.522076 L98.8735902,150.522076 L98.8735902,148.881579 L98.6561789,148.881579 L98.6561789,150.522076 Z" id="Fill-83" fill="#FFFFFF" mask="url(#mask-6)"></path>
                    <path d="M100.445827,149.794353 L100.410784,149.739092 L99.8742641,148.881607 L100.117538,148.881607 L100.528531,149.557381 L100.563574,149.615017 L101.130652,150.522104 L100.887308,150.522104 L100.445827,149.794353 Z M100.436786,149.590147 L100.862357,148.881607 L101.105771,148.881607 L100.557967,149.765011 L100.104011,150.522104 L99.8605971,150.522104 L100.436786,149.590147 Z" id="Fill-84" fill="#FFFFFF" mask="url(#mask-6)"></path>
                    <path d="M101.498576,149.680422 L102.024933,149.680422 C102.077779,149.680422 102.124177,149.668196 102.164127,149.643745 C102.204147,149.619293 102.235126,149.584711 102.256993,149.53993 C102.27886,149.495218 102.289794,149.443451 102.289794,149.384836 C102.289794,149.325384 102.27886,149.273267 102.256993,149.228485 C102.235126,149.183774 102.204147,149.148983 102.164127,149.124112 C102.124177,149.099381 102.077779,149.086945 102.024933,149.086945 L101.498576,149.086945 L101.498576,148.881551 L102.016943,148.881551 C102.115136,148.881551 102.201484,148.90244 102.276267,148.944217 C102.35091,148.985995 102.408802,149.044749 102.449944,149.120758 C102.491085,149.196768 102.511691,149.284794 102.511691,149.384836 C102.511691,149.484809 102.491085,149.572625 102.449944,149.648216 C102.408802,149.723876 102.35091,149.782351 102.276267,149.823709 C102.201484,149.865137 102.115136,149.885746 102.016943,149.885746 L101.498576,149.885746 L101.498576,149.680422 Z M101.379708,150.522048 L101.597119,150.522048 L101.597119,148.881551 L101.379708,148.881551 L101.379708,150.522048 Z" id="Fill-85" fill="#FFFFFF" mask="url(#mask-6)"></path>
                    <polygon id="Fill-86" fill="#FFFFFF" mask="url(#mask-6)" points="102.80711 150.522076 103.024521 150.522076 103.024521 148.881579 102.80711 148.881579"></polygon>
                    <path d="M104.003594,149.777432 L104.217571,149.725525 L104.638656,150.52209 L104.380524,150.52209 L104.003594,149.777432 Z M103.539475,149.622828 L104.100945,149.622828 C104.148465,149.622828 104.190377,149.61179 104.226612,149.589644 C104.262777,149.567358 104.290952,149.53599 104.310927,149.4954 C104.330902,149.45474 104.340925,149.407723 104.340925,149.354279 C104.340925,149.300974 104.330902,149.253887 104.310927,149.213297 C104.290952,149.172708 104.262988,149.14127 104.227103,149.119054 C104.191358,149.096908 104.149236,149.0858 104.100945,149.0858 L103.539475,149.0858 L103.539475,148.880406 L104.091904,148.880406 C104.186943,148.880406 104.270557,148.899967 104.342607,148.93909 C104.414657,148.978282 104.470517,149.033683 104.510186,149.10557 C104.549785,149.177388 104.56955,149.260315 104.56955,149.354279 C104.56955,149.448383 104.549575,149.531309 104.509625,149.603127 C104.469535,149.674945 104.413606,149.730415 104.341485,149.769538 C104.269436,149.808661 104.186172,149.828222 104.091904,149.828222 L103.539475,149.828222 L103.539475,149.622828 Z M103.438759,150.52209 L103.6561,150.52209 L103.6561,148.880406 L103.438759,148.880406 L103.438759,150.52209 Z" id="Fill-87" fill="#FFFFFF" mask="url(#mask-6)"></path>
                    <path d="M105.061964,150.522076 L106.007163,150.522076 L106.007163,150.316752 L105.061964,150.316752 L105.061964,150.522076 Z M105.061964,149.810184 L105.882688,149.810184 L105.882688,149.604859 L105.061964,149.604859 L105.061964,149.810184 Z M105.061964,149.086903 L106.007163,149.086903 L106.007163,148.881579 L105.061964,148.881579 L105.061964,149.086903 Z M104.949894,150.522076 L105.167305,150.522076 L105.167305,148.881579 L104.949894,148.881579 L104.949894,150.522076 Z" id="Fill-88" fill="#FFFFFF" mask="url(#mask-6)"></path>
                    <path d="M106.604834,150.516508 C106.533906,150.501418 106.467673,150.478923 106.406206,150.448742 C106.34467,150.418772 106.287128,150.381116 106.233581,150.335985 L106.368289,150.168945 C106.432419,150.224625 106.502997,150.266403 106.579953,150.294208 C106.656909,150.322083 106.740313,150.335985 106.830095,150.335985 C106.9538,150.335985 107.04975,150.312651 107.117594,150.265984 C107.185509,150.219386 107.219501,150.153995 107.219501,150.069672 L107.219501,150.068554 C107.219501,150.010638 107.204222,149.96439 107.173664,149.929808 C107.143106,149.895157 107.103647,149.869587 107.055357,149.85303 C107.007066,149.836542 106.944478,149.821103 106.867452,149.806781 C106.865209,149.806013 106.862756,149.805664 106.860163,149.805664 C106.85743,149.805664 106.854976,149.805244 106.852734,149.804546 L106.832338,149.801123 C106.72146,149.781561 106.631468,149.759974 106.562431,149.736291 C106.493325,149.712538 106.434241,149.669922 106.38525,149.608164 C106.336189,149.546476 106.311658,149.459218 106.311658,149.346461 L106.311658,149.345274 C106.311658,149.243764 106.334507,149.157066 106.380134,149.085248 C106.425761,149.01336 106.492414,148.958658 106.579953,148.921072 C106.667492,148.883417 106.772764,148.864624 106.895697,148.864624 C106.954571,148.864624 107.012533,148.870981 107.069514,148.883836 C107.126425,148.89662 107.182706,148.915623 107.238145,148.940773 C107.293584,148.966063 107.348112,148.997781 107.401729,149.036205 L107.277254,149.207646 C107.213123,149.161048 107.149344,149.126047 107.085915,149.102713 C107.022556,149.079449 106.959197,149.067782 106.895697,149.067782 C106.778721,149.067782 106.688028,149.091465 106.623548,149.138762 C106.558997,149.186198 106.526757,149.252776 106.526757,149.338567 L106.526757,149.339615 C106.526757,149.396832 106.543297,149.441962 106.576589,149.475077 C106.60974,149.508122 106.650882,149.532573 106.699873,149.548432 C106.749004,149.564151 106.817269,149.580708 106.904809,149.598104 C106.907822,149.598802 106.910626,149.599361 106.913289,149.599711 C106.915883,149.60013 106.918756,149.600689 106.92177,149.601387 C106.926326,149.602156 106.930601,149.602924 106.934806,149.603693 C106.939011,149.604391 106.943287,149.60516 106.947842,149.605928 C107.048208,149.626258 107.131962,149.650361 107.199106,149.678166 C107.26632,149.705971 107.32225,149.750542 107.367176,149.811881 C107.412172,149.87315 107.4346,149.956426 107.4346,150.061777 L107.4346,150.064013 C107.4346,150.164055 107.41084,150.249636 107.363251,150.320685 C107.315732,150.391805 107.246836,150.445948 107.156703,150.483184 C107.0665,150.52049 106.957585,150.539074 106.830095,150.539074 C106.750897,150.539074 106.675763,150.531529 106.604834,150.516508" id="Fill-89" fill="#FFFFFF" mask="url(#mask-6)"></path>
                    <path d="M98.7683188,153.295035 L99.7134484,153.295035 L99.7134484,153.089711 L98.7683188,153.089711 L98.7683188,153.295035 Z M98.7683188,152.583072 L99.5889731,152.583072 L99.5889731,152.377748 L98.7683188,152.377748 L98.7683188,152.583072 Z M98.7683188,151.859792 L99.7134484,151.859792 L99.7134484,151.654468 L98.7683188,151.654468 L98.7683188,151.859792 Z M98.6561789,153.295035 L98.8735902,153.295035 L98.8735902,151.654468 L98.6561789,151.654468 L98.6561789,153.295035 Z" id="Fill-90" fill="#FFFFFF" mask="url(#mask-6)"></path>
                    <polygon id="Fill-91" fill="#FFFFFF" mask="url(#mask-6)" points="100.041731 151.654496 100.242041 151.654496 101.077484 152.964476 101.04237 152.979147 101.04237 151.654496 101.257468 151.654496 101.257468 153.293945 101.054846 153.293945 100.218352 151.9964 100.25676 151.9862 100.25676 153.293945 100.041731 153.293945"></polygon>
                    <path d="M101.821161,153.089732 L102.193536,153.089732 C102.321161,153.089732 102.419217,153.057595 102.487903,152.993252 C102.556589,152.92891 102.590862,152.836622 102.590862,152.71625 L102.590862,152.233295 C102.590862,152.112993 102.556589,152.020635 102.487903,151.956292 C102.419217,151.892019 102.321161,151.859883 102.193536,151.859883 L101.821161,151.859883 L101.821161,151.654489 L102.186807,151.654489 C102.320394,151.654489 102.433936,151.677264 102.527503,151.722814 C102.621069,151.768294 102.692068,151.834872 102.740288,151.922479 C102.788648,152.010156 102.812759,152.116765 102.812759,152.242377 L102.812759,152.707168 C102.812759,152.83285 102.788438,152.939529 102.739727,153.027135 C102.691087,153.114742 102.619948,153.181321 102.526451,153.226801 C102.432814,153.272281 102.319203,153.295056 102.185686,153.295056 L101.821161,153.295056 L101.821161,153.089732 Z M101.664936,153.295056 L101.882277,153.295056 L101.882277,151.654489 L101.664936,151.654489 L101.664936,153.295056 Z" id="Fill-92" fill="#FFFFFF" mask="url(#mask-6)"></path>
                    <path d="M110.822881,152.578322 C110.931376,152.460325 110.985624,152.290141 110.985624,152.067911 L110.985624,150.100809 C110.985624,149.878648 110.931937,149.708535 110.824353,149.590468 C110.716908,149.472471 110.548698,149.413368 110.319793,149.413368 C110.090957,149.413368 109.922747,149.472471 109.815303,149.590468 C109.707789,149.708535 109.654032,149.878648 109.654032,150.100809 L109.654032,152.067911 C109.654032,152.290141 109.70828,152.460325 109.816775,152.578322 C109.9252,152.696318 110.09292,152.755352 110.319793,152.755352 C110.546806,152.755352 110.714385,152.696318 110.822881,152.578322 M109.39583,152.972692 C109.185848,152.7564 109.080857,152.454806 109.080857,152.067911 L109.080857,150.100809 C109.080857,149.712028 109.186268,149.409945 109.397301,149.19463 C109.608265,148.979386 109.915809,148.871729 110.319793,148.871729 C110.72588,148.871729 111.033914,148.978967 111.243896,149.193163 C111.453878,149.40743 111.558869,149.710002 111.558869,150.100809 L111.558869,152.067911 C111.558869,152.456832 111.453317,152.758845 111.242354,152.974089 C111.031391,153.189404 110.723847,153.296991 110.319793,153.296991 C109.913776,153.296991 109.605812,153.188915 109.39583,152.972692" id="Fill-93" fill="#FFFFFF" mask="url(#mask-6)"></path>
                    <path d="M114.077161,152.578322 C114.185657,152.460325 114.239834,152.290141 114.239834,152.067911 L114.239834,150.100809 C114.239834,149.878648 114.186147,149.708535 114.078633,149.590468 C113.971189,149.472471 113.802979,149.413368 113.574073,149.413368 C113.345238,149.413368 113.177028,149.472471 113.069514,149.590468 C112.96207,149.708535 112.908312,149.878648 112.908312,150.100809 L112.908312,152.067911 C112.908312,152.290141 112.96256,152.460325 113.071056,152.578322 C113.179481,152.696318 113.3472,152.755352 113.574073,152.755352 C113.801017,152.755352 113.968666,152.696318 114.077161,152.578322 M112.65011,152.972692 C112.440128,152.7564 112.335137,152.454806 112.335137,152.067911 L112.335137,150.100809 C112.335137,149.712028 112.440549,149.409945 112.651582,149.19463 C112.862545,148.979386 113.170089,148.871729 113.574073,148.871729 C113.98016,148.871729 114.288125,148.978967 114.498107,149.193163 C114.708089,149.40743 114.81308,149.710002 114.81308,150.100809 L114.81308,152.067911 C114.81308,152.456832 114.707598,152.758845 114.496635,152.974089 C114.285671,153.189404 113.978128,153.296991 113.574073,153.296991 C113.168057,153.296991 112.860092,153.188915 112.65011,152.972692" id="Fill-94" fill="#FFFFFF" mask="url(#mask-6)"></path>
                    <polygon id="Fill-95" fill="#FFFFFF" mask="url(#mask-6)" points="115.78342 154.073737 115.237088 154.073737 117.276213 148.413456 117.822545 148.413456"></polygon>
                    <path d="M120.00352,152.578322 C120.111945,152.460325 120.166193,152.290141 120.166193,152.067911 L120.166193,150.100809 C120.166193,149.878648 120.112506,149.708535 120.004992,149.590468 C119.897477,149.472471 119.729337,149.413368 119.500432,149.413368 C119.271526,149.413368 119.103316,149.472471 118.995872,149.590468 C118.888428,149.708535 118.834671,149.878648 118.834671,150.100809 L118.834671,152.067911 C118.834671,152.290141 118.888919,152.460325 118.997414,152.578322 C119.105839,152.696318 119.273559,152.755352 119.500432,152.755352 C119.727375,152.755352 119.895024,152.696318 120.00352,152.578322 M118.576399,152.972692 C118.366416,152.7564 118.261425,152.454806 118.261425,152.067911 L118.261425,150.100809 C118.261425,149.712028 118.366907,149.409945 118.57787,149.19463 C118.788834,148.979386 119.096377,148.871729 119.500432,148.871729 C119.906449,148.871729 120.214483,148.978967 120.424465,149.193163 C120.634447,149.40743 120.739438,149.710002 120.739438,150.100809 L120.739438,152.067911 C120.739438,152.456832 120.633956,152.758845 120.422923,152.974089 C120.21203,153.189404 119.904486,153.296991 119.500432,153.296991 C119.094345,153.296991 118.786381,153.188915 118.576399,152.972692" id="Fill-96" fill="#FFFFFF" mask="url(#mask-6)"></path>
                    <path d="M123.25773,152.578322 C123.366226,152.460325 123.420473,152.290141 123.420473,152.067911 L123.420473,150.100809 C123.420473,149.878648 123.366786,149.708535 123.259202,149.590468 C123.151758,149.472471 122.983548,149.413368 122.754642,149.413368 C122.525807,149.413368 122.357597,149.472471 122.250153,149.590468 C122.142638,149.708535 122.088881,149.878648 122.088881,150.100809 L122.088881,152.067911 C122.088881,152.290141 122.143129,152.460325 122.251695,152.578322 C122.36005,152.696318 122.527769,152.755352 122.754642,152.755352 C122.981656,152.755352 123.149235,152.696318 123.25773,152.578322 M121.830679,152.972692 C121.620697,152.7564 121.515706,152.454806 121.515706,152.067911 L121.515706,150.100809 C121.515706,149.712028 121.621118,149.409945 121.832151,149.19463 C122.043114,148.979386 122.350658,148.871729 122.754642,148.871729 C123.160729,148.871729 123.468763,148.978967 123.678746,149.193163 C123.888728,149.40743 123.993719,149.710002 123.993719,150.100809 L123.993719,152.067911 C123.993719,152.456832 123.888167,152.758845 123.677204,152.974089 C123.46624,153.189404 123.158767,153.296991 122.754642,153.296991 C122.348625,153.296991 122.040661,153.188915 121.830679,152.972692" id="Fill-97" fill="#FFFFFF" mask="url(#mask-6)"></path>
                </g>
            </g>
        </g>
    </g>
</svg>