<svg width="33" height="45" viewBox="0 0 33 45" fill="none" xmlns="http://www.w3.org/2000/svg">
<mask id="mask0_0_2806" style="mask-type:luminance" maskUnits="userSpaceOnUse" x="6" y="41" width="20" height="4">
<path fill-rule="evenodd" clip-rule="evenodd" d="M6.96155 41.9156H25.5899V45H6.96155V41.9156Z" fill="white"/>
</mask>
<g mask="url(#mask0_0_2806)">
<path d="M24.2774 41.9161C25.0556 42.1073 25.5425 42.6399 25.5866 43.3475C25.6311 44.062 25.2255 44.6355 24.4707 44.9302C24.4313 44.9458 24.3986 44.9763 24.3629 45.0002H8.19103C7.78798 44.8271 7.40616 44.6339 7.17666 44.2257C6.63891 43.2688 7.14765 42.1928 8.27651 41.9161C8.68215 41.9156 9.08883 41.9156 9.49448 41.9156H23.0584C23.4651 41.9156 23.8713 41.9161 24.2774 41.9161Z" fill="#FCCA5D"/>
</g>
<path d="M23.0581 41.9159H9.49468C9.15483 41.8087 8.80565 41.7584 8.44974 41.7533C4.40004 41.0078 1.30461 37.7694 0.829545 33.7362C0.661174 32.3095 0.748209 30.8708 0.754426 29.4368C2.02368 29.4389 3.29346 29.443 4.56271 29.441C5.10357 29.4399 5.37866 29.183 5.37918 28.696C5.38022 28.2064 5.10668 27.9484 4.56686 27.9474C3.29708 27.9448 2.02783 27.9489 0.75857 27.9505C0.784991 27.2501 0.601079 26.5336 0.927459 25.8575C1.19996 25.6208 1.52168 25.585 1.87033 25.585C9.23254 25.5897 16.5953 25.5892 23.958 25.5881C26.3437 25.5876 28.7293 25.5824 31.1155 25.5793C31.646 25.7384 31.83 26.1202 31.8113 26.6439C31.7958 27.0791 31.7999 27.5153 31.7947 27.951C23.815 27.9489 15.8347 27.9474 7.85449 27.9458C7.82548 27.9458 7.79646 27.9448 7.76693 27.9463C7.32813 27.9671 6.95098 28.3266 6.96238 28.712C6.97533 29.1576 7.28099 29.441 7.77056 29.441C15.7803 29.441 23.7896 29.4389 31.7989 29.4368C31.7823 31.1459 31.9455 32.8643 31.5761 34.5553C30.7617 38.2848 27.8792 41.0528 24.1035 41.7533C23.7476 41.7584 23.3985 41.8087 23.0581 41.9159Z" fill="#FCCA5D"/>
<mask id="mask1_0_2806" style="mask-type:luminance" maskUnits="userSpaceOnUse" x="0" y="25" width="32" height="17">
<path fill-rule="evenodd" clip-rule="evenodd" d="M23.958 25.5881C16.5953 25.5897 9.23261 25.5902 1.86989 25.585C1.52175 25.585 1.20003 25.6208 0.927012 25.858C0.600632 26.5336 0.785063 27.2506 0.758124 27.951C2.0279 27.9489 3.29715 27.9453 4.56693 27.9474C5.10675 27.9484 5.38029 28.2069 5.37873 28.6965C5.37821 29.183 5.10364 29.4399 4.56278 29.441C3.29353 29.4436 2.02375 29.4389 0.754497 29.4373C0.748281 30.8708 0.661246 32.31 0.829098 33.7362C1.30468 37.7699 4.39959 41.0078 8.44981 41.7533C8.80572 41.7584 9.15438 41.8087 9.49475 41.9159H23.0582C23.3985 41.8087 23.7472 41.7584 24.1031 41.7533C27.8793 41.0534 30.7613 38.2848 31.5762 34.5553C31.945 32.8648 31.7818 31.1459 31.7984 29.4373C23.7897 29.4389 15.7799 29.441 7.77063 29.441C7.28054 29.441 6.9754 29.1581 6.96245 28.712C6.95054 28.3266 7.32769 27.9671 7.76649 27.9469C7.79602 27.9453 7.82555 27.9463 7.85456 27.9463C15.8348 27.9474 23.8145 27.9489 31.7948 27.9515C31.7995 27.5153 31.7958 27.0796 31.8109 26.6445C31.83 26.1202 31.6461 25.7389 31.1156 25.5793C28.7294 25.5824 26.3437 25.5881 23.958 25.5881Z" fill="white"/>
</mask>
<g mask="url(#mask1_0_2806)">
<path d="M33.9255 42.5773H15.3575C15.3575 42.5773 18.4089 39.1364 19.3943 34.0189C19.7963 31.9301 20.5449 25.589 20.5449 25.589H33.9255V42.5773Z" fill="#E5B856"/>
</g>
<path d="M31.1155 25.579C28.7299 25.5821 26.3442 25.5878 23.958 25.5883C16.5953 25.5893 9.23306 25.5899 1.87034 25.5847C1.52169 25.5847 1.19997 25.6204 0.927467 25.8572C0.358634 25.0236 -0.028878 24.1439 0.00168775 23.0933C0.0534941 21.291 0.850276 19.9559 2.3739 19.0229C2.64433 18.8566 2.96087 18.7716 3.19555 18.5463C3.37739 18.4955 3.56234 18.453 3.74159 18.3934C4.75803 18.0557 5.81436 17.8857 6.87173 17.8557C8.09591 17.8205 9.32321 17.835 10.5526 17.9008C12.3 17.9935 14.0521 18.0329 15.8026 18.0888C17.8733 18.1551 19.944 18.079 21.9966 17.749C23.8326 17.4537 25.5588 16.8532 27.1399 15.8679C27.6922 15.5239 28.2144 15.1327 28.7506 14.7634C30.096 15.7264 31.2399 16.862 31.9818 18.3743C32.5936 19.6218 32.6169 20.9366 32.5003 22.2665C32.4216 23.1705 32.1859 24.0388 31.7269 24.8392C31.5621 25.1257 31.2984 25.3153 31.1155 25.579Z" fill="#8F1E77"/>
<path d="M28.7506 14.7631C28.2144 15.1325 27.6922 15.5241 27.1399 15.8681C25.5588 16.8535 23.8326 17.4534 21.9966 17.7492C19.9435 18.0792 17.8733 18.1549 15.8026 18.0885C14.0521 18.0326 12.3 17.9937 10.5525 17.9005C9.32317 17.8352 8.09588 17.8207 6.8717 17.8554C5.81433 17.8855 4.75748 18.0554 3.74156 18.3932C3.56231 18.4533 3.37736 18.4957 3.19552 18.546C2.70698 16.1334 3.76124 13.9617 5.96405 12.8369C6.43082 12.5981 6.90641 12.3795 7.40323 12.2111C9.04446 11.7013 10.7478 11.6324 12.4419 11.5122C13.5728 11.4319 14.7012 11.3133 15.8166 11.132C17.8852 10.7947 19.943 10.3792 21.8588 9.47988C23.0555 8.91882 24.203 8.27901 24.8174 7.01124C26.0074 7.00354 26.9353 7.6335 27.7963 8.33134C28.4724 8.87945 29.0681 9.52392 29.4898 10.3191C30.2162 11.6894 30.0421 13.3856 28.922 14.4683C28.8371 14.5502 28.7547 14.6336 28.7506 14.7631Z" fill="#A45697"/>
<mask id="mask2_0_2806" style="mask-type:luminance" maskUnits="userSpaceOnUse" x="7" y="0" width="19" height="13">
<path fill-rule="evenodd" clip-rule="evenodd" d="M7.23279 0H25.1533V12.2109H7.23279V0Z" fill="white"/>
</mask>
<g mask="url(#mask2_0_2806)">
<path d="M24.8171 7.01112C24.2027 8.27934 23.0552 8.91863 21.859 9.48022C19.9427 10.3791 17.8855 10.7951 15.8163 11.1318C14.7009 11.3136 13.5726 11.4323 12.4416 11.5121C10.7476 11.6323 9.0447 11.7017 7.40348 12.2109C7.07503 10.9634 7.21024 9.77499 7.89926 8.67566C8.49607 7.72502 9.34932 7.04635 10.3114 6.49202C12.0412 5.49372 13.9394 4.98912 15.8692 4.55757C17.5275 4.18716 19.0309 3.51679 20.094 2.10558C20.4955 1.57197 20.7778 0.979828 20.8892 0.321887C20.9436 0.000687987 21.0866 -0.0417932 21.3689 0.0296995C23.0485 0.456066 24.0509 1.62274 24.7104 3.12927C25.2658 4.39698 25.2958 5.70301 24.8171 7.01112Z" fill="#8F1E77"/>
</g>
<path fill-rule="evenodd" clip-rule="evenodd" d="M7.77098 29.4408C15.7802 29.4408 23.7895 29.4387 31.7988 29.4366C31.833 28.9414 31.8402 28.4461 31.7951 27.9508C23.8149 27.9488 15.8352 27.9472 7.85491 27.9457C7.84665 27.9457 7.83835 27.9456 7.83002 27.9455C7.80908 27.9453 7.78796 27.9451 7.76684 27.9462C7.32804 27.9669 6.95089 28.3259 6.96228 28.7119C6.97524 29.1574 7.28089 29.4408 7.77098 29.4408ZM1.81635 27.9485C1.46381 27.9491 1.11127 27.9498 0.758733 27.9502C0.713661 28.4455 0.720396 28.9413 0.754588 29.4365C1.07182 29.4371 1.38909 29.4377 1.70637 29.4383C2.65854 29.4403 3.61085 29.4422 4.56287 29.4407C5.10373 29.4396 5.37831 29.1827 5.37934 28.6957C5.38038 28.2061 5.10684 27.9481 4.56702 27.9471C3.64993 27.9452 2.7331 27.9469 1.81635 27.9485Z" fill="#A45697"/>
</svg>
