<svg width="80" height="80" viewBox="0 0 80 80" fill="none" xmlns="http://www.w3.org/2000/svg">
<path fill-rule="evenodd" clip-rule="evenodd" d="M71.7421 70.625H75.3126C77.8973 70.625 80.0001 72.7278 80.0001 75.3125C80.0001 77.8971 77.8973 80 75.3126 80H22.5465C19.9618 80 17.859 77.8971 17.859 75.3125C17.859 72.7278 19.9618 70.625 22.5465 70.625H26.1171V65.9276C26.1171 65.0648 26.8168 64.3651 27.6796 64.3651H42.2398C43.1026 64.3651 43.8023 65.0648 43.8023 65.9276C43.8023 66.7904 43.1026 67.4901 42.2398 67.4901H29.2421V70.6151H68.6171V67.4901H55.0523C54.1895 67.4901 53.4898 66.7904 53.4898 65.9276C53.4898 65.0648 54.1895 64.3651 55.0523 64.3651H70.1796C71.0424 64.3651 71.7421 65.0648 71.7421 65.9276V70.625ZM22.5465 76.875H75.3126C76.1742 76.875 76.8751 76.174 76.8751 75.3125C76.8751 74.4509 76.1742 73.75 75.3126 73.75H22.5465C21.6849 73.75 20.984 74.4509 20.984 75.3125C20.984 76.174 21.6849 76.875 22.5465 76.875Z" fill="white"/>
<path d="M50.0344 64.8234C49.7437 64.5313 49.3406 64.3655 48.9297 64.3655C48.5187 64.3655 48.1158 64.5313 47.8252 64.8234C47.5345 65.1139 47.3672 65.5156 47.3672 65.928C47.3672 66.3389 47.5344 66.742 47.8252 67.0327C48.1156 67.3233 48.5187 67.4905 48.9297 67.4905C49.3406 67.4905 49.7437 67.3234 50.0344 67.0327C50.325 66.7419 50.4922 66.3389 50.4922 65.928C50.4922 65.5155 50.3252 65.1139 50.0344 64.8234Z" fill="white"/>
<path d="M56.1982 26.5625H41.6611C40.7983 26.5625 40.0986 27.262 40.0986 28.125C40.0986 28.9878 40.7983 29.6875 41.6611 29.6875H48.9064H56.1982C57.061 29.6875 57.7607 28.9878 57.7607 28.125C57.7607 27.2623 57.061 26.5625 56.1982 26.5625Z" fill="white"/>
<path fill-rule="evenodd" clip-rule="evenodd" d="M68.7396 48.9256C69.0841 50.4478 70.4783 51.5527 72.0546 51.5527C72.9174 51.5527 73.6171 52.2523 73.6171 53.1152V59.6777C73.6171 60.5405 72.9174 61.2402 72.0546 61.2402H25.8046C24.9418 61.2402 24.2421 60.5405 24.2421 59.6777V53.1152C24.2421 52.2523 24.9418 51.5527 25.8046 51.5527C27.3808 51.5527 28.7749 50.4478 29.1196 48.9256C30.1202 44.505 32.6225 40.4922 36.1657 37.6264C39.3505 35.0502 43.2702 33.5 47.3439 33.1788V31.25C47.3439 30.387 48.0435 29.6875 48.9063 29.6875C49.7691 29.6875 50.4688 30.3872 50.4688 31.25V33.1753C54.5593 33.4884 58.4964 35.0405 61.6935 37.6264C65.2366 40.492 67.7391 44.505 68.7396 48.9256ZM27.3672 54.4931V58.1155H70.4922V54.4931C68.1268 53.9222 66.2485 52.0748 65.6919 49.6156C63.9094 41.7405 57.0166 36.2403 48.9297 36.2403C40.8428 36.2403 33.95 41.7406 32.1675 49.6158C31.6108 52.0747 29.7324 53.922 27.3672 54.4931Z" fill="white"/>
<path d="M53.8997 11.6728L47.8812 5.37094C44.6216 1.95781 40.0448 0 35.3248 0C31.9836 0 28.733 0.956094 25.9241 2.76516L12.952 11.1189C11.2312 12.2269 9.24 12.8125 7.19359 12.8125H1.56265C0.699841 12.8125 0 13.5122 0 14.375C0 15.2378 0.699841 15.9375 1.56265 15.9375H7.19344C9.84125 15.9375 12.4177 15.1797 14.6439 13.7461L27.6159 5.3925C29.9194 3.90937 32.5852 3.125 35.325 3.125C39.1955 3.125 42.9484 4.73031 45.6217 7.52938L51.6402 13.8313C52.488 14.7189 52.4698 16.1455 51.5997 17.0114C50.7253 17.8809 49.2955 17.8891 48.4117 17.0287L42.0214 10.8073C40.4517 9.27922 38.3809 8.43766 36.1905 8.43766C34.435 8.43766 32.7527 8.97766 31.3252 9.99938L20.5298 17.7264C19.2198 18.6642 18.4378 20.1856 18.4378 21.7966V21.8723C18.4378 23.2098 18.9587 24.467 19.9047 25.4127C20.8502 26.3578 22.1069 26.8783 23.4436 26.8783C23.4441 26.8783 23.4448 26.8783 23.4453 26.8783L30.0003 26.8764C30.0006 26.8764 30.0009 26.8764 30.0012 26.8764C30.7939 26.8764 31.5394 27.1852 32.1 27.7455C32.6608 28.3062 32.9695 29.0516 32.9695 29.8447C32.9695 31.4814 31.6381 32.813 30.0016 32.813L9.78187 32.8128C7.16265 32.8127 4.61109 32.0681 2.40297 30.66C1.67562 30.1961 0.709529 30.4097 0.24531 31.1373C-0.218752 31.8648 -0.00500232 32.8309 0.722654 33.295C3.43359 35.0237 6.56609 35.9381 9.78172 35.9381H30.0016C33.3611 35.9381 36.0944 33.2044 36.0944 29.8445C36.0944 28.2166 35.4603 26.6863 34.3091 25.5353C33.1581 24.385 31.6284 23.7514 30.0012 23.7514C30.0006 23.7514 29.9998 23.7514 29.9992 23.7514L23.4442 23.7533C23.4439 23.7533 23.4437 23.7533 23.4436 23.7533C22.9412 23.7533 22.4691 23.5577 22.1137 23.2027C21.7584 22.8473 21.5627 22.3748 21.5627 21.8723V21.7966C21.5627 21.1914 21.8564 20.6198 22.3484 20.2677L33.1437 12.5406C34.0377 11.9008 35.0909 11.5627 36.1902 11.5627C37.5617 11.5627 38.8584 12.0895 39.8412 13.0464L46.2316 19.2678C48.3306 21.3114 51.7273 21.2927 53.8037 19.2262C55.8705 17.1698 55.9134 13.7812 53.8997 11.6728Z" fill="white"/>
<path d="M71.8952 18.4951C71.2849 17.8851 70.2958 17.8851 69.6853 18.4951L66.3207 21.8598C65.7105 22.4699 65.7105 23.4593 66.3207 24.0696C66.626 24.3748 67.0257 24.5273 67.4257 24.5273C67.8257 24.5273 68.2253 24.3746 68.5305 24.0696L71.8952 20.7049C72.5053 20.0948 72.5053 19.1054 71.8952 18.4951Z" fill="white"/>
<path d="M75.8047 14.5844C75.5143 14.2938 75.1111 14.1282 74.7002 14.1282C74.2893 14.1282 73.8861 14.2938 73.5955 14.5844C73.3049 14.8766 73.1377 15.2782 73.1377 15.6907C73.1377 16.1016 73.3047 16.5047 73.5955 16.7954C73.8863 17.0858 74.2894 17.2532 74.7002 17.2532C75.1111 17.2532 75.5143 17.086 75.8047 16.7954C76.0954 16.5047 76.2627 16.1016 76.2627 15.6907C76.2627 15.2783 76.0955 14.875 75.8047 14.5844Z" fill="white"/>
<path d="M76.4846 27.1046C76.1867 26.2947 75.2882 25.8797 74.4787 26.1777L72.3489 26.9615C71.5389 27.2594 71.124 28.1575 71.422 28.9674C71.6545 29.5993 72.2521 29.9908 72.8885 29.9908C73.0676 29.9908 73.2499 29.9597 73.4279 29.8943L75.5578 29.1105C76.3678 28.8125 76.7826 27.9146 76.4846 27.1046Z" fill="white"/>
<path d="M63.2861 13.9057C62.4768 13.6078 61.5782 14.0226 61.2802 14.8326L60.4964 16.9625C60.1985 17.7723 60.6133 18.6704 61.4233 18.9684C61.6013 19.0339 61.7835 19.065 61.9627 19.065C62.5988 19.065 63.1966 18.6734 63.4293 18.0415L64.213 15.9117C64.511 15.102 64.0961 14.2037 63.2861 13.9057Z" fill="white"/>
</svg>
