<svg width="110" height="110" viewBox="0 0 110 110" fill="none" xmlns="http://www.w3.org/2000/svg">
<rect width="110" height="110" rx="26" fill="#FD0D00"/>
<rect x="27" y="77" width="56.1" height="17" rx="8.5" fill="white"/>
<path fill-rule="evenodd" clip-rule="evenodd" d="M74.7552 70L69.7571 54.5902L64.7589 70H57.5142L64.4691 48.5557H75.0451L82 70H74.7552Z" fill="white"/>
<path fill-rule="evenodd" clip-rule="evenodd" d="M46.5309 41.4433H35.9549L29 20H36.2448L41.2429 35.4098L46.2405 20H53.4858L46.5309 41.4433Z" fill="white"/>
<path fill-rule="evenodd" clip-rule="evenodd" d="M51.9488 55.8731H37.6436V62.9554H51.9488V69.9465H30.537V48.6094H51.9488V55.8731Z" fill="white"/>
<path fill-rule="evenodd" clip-rule="evenodd" d="M59.1042 20H66.2664V34.3262H73.3382V20H80.4099V41.4433H59.1042V20Z" fill="white"/>
<path d="M41.1614 82.9439H38.3294V84.4559H40.9094V86.4479H38.3294V89.9999H35.9774V80.9519H41.1614V82.9439Z" fill="#FD0D00"/>
<path fill-rule="evenodd" clip-rule="evenodd" d="M43.4507 83.598C43.2027 84.178 43.0787 84.804 43.0787 85.476C43.0787 86.148 43.2027 86.774 43.4507 87.354C43.6987 87.934 44.0427 88.44 44.4827 88.872C44.9227 89.304 45.4487 89.642 46.0607 89.886C46.6727 90.13 47.3467 90.252 48.0827 90.252C48.8107 90.252 49.4827 90.13 50.0987 89.886C50.7147 89.642 51.2447 89.304 51.6887 88.872C52.1327 88.44 52.4787 87.934 52.7267 87.354C52.9747 86.774 53.0987 86.148 53.0987 85.476C53.0987 84.804 52.9747 84.178 52.7267 83.598C52.4787 83.018 52.1327 82.512 51.6887 82.08C51.2447 81.648 50.7147 81.31 50.0987 81.066C49.4827 80.822 48.8107 80.7 48.0827 80.7C47.3467 80.7 46.6727 80.822 46.0607 81.066C45.4487 81.31 44.9227 81.648 44.4827 82.08C44.0427 82.512 43.6987 83.018 43.4507 83.598ZM45.7427 86.472C45.6067 86.168 45.5387 85.836 45.5387 85.476C45.5387 85.116 45.6067 84.784 45.7427 84.48C45.8787 84.176 46.0627 83.912 46.2947 83.688C46.5267 83.464 46.7967 83.29 47.1047 83.166C47.4127 83.042 47.7387 82.98 48.0827 82.98C48.4267 82.98 48.7527 83.042 49.0607 83.166C49.3687 83.29 49.6407 83.464 49.8767 83.688C50.1127 83.912 50.2987 84.176 50.4347 84.48C50.5707 84.784 50.6387 85.116 50.6387 85.476C50.6387 85.836 50.5707 86.168 50.4347 86.472C50.2987 86.776 50.1127 87.04 49.8767 87.264C49.6407 87.488 49.3687 87.662 49.0607 87.786C48.7527 87.91 48.4267 87.972 48.0827 87.972C47.7387 87.972 47.4127 87.91 47.1047 87.786C46.7967 87.662 46.5267 87.488 46.2947 87.264C46.0627 87.04 45.8787 86.776 45.7427 86.472Z" fill="#FD0D00"/>
<path fill-rule="evenodd" clip-rule="evenodd" d="M55.484 83.598C55.236 84.178 55.112 84.804 55.112 85.476C55.112 86.148 55.236 86.774 55.484 87.354C55.732 87.934 56.076 88.44 56.516 88.872C56.956 89.304 57.482 89.642 58.094 89.886C58.706 90.13 59.38 90.252 60.116 90.252C60.844 90.252 61.516 90.13 62.132 89.886C62.748 89.642 63.278 89.304 63.722 88.872C64.166 88.44 64.512 87.934 64.76 87.354C65.008 86.774 65.132 86.148 65.132 85.476C65.132 84.804 65.008 84.178 64.76 83.598C64.512 83.018 64.166 82.512 63.722 82.08C63.278 81.648 62.748 81.31 62.132 81.066C61.516 80.822 60.844 80.7 60.116 80.7C59.38 80.7 58.706 80.822 58.094 81.066C57.482 81.31 56.956 81.648 56.516 82.08C56.076 82.512 55.732 83.018 55.484 83.598ZM57.776 86.472C57.64 86.168 57.572 85.836 57.572 85.476C57.572 85.116 57.64 84.784 57.776 84.48C57.912 84.176 58.096 83.912 58.328 83.688C58.56 83.464 58.83 83.29 59.138 83.166C59.446 83.042 59.772 82.98 60.116 82.98C60.46 82.98 60.786 83.042 61.094 83.166C61.402 83.29 61.674 83.464 61.91 83.688C62.146 83.912 62.332 84.176 62.468 84.48C62.604 84.784 62.672 85.116 62.672 85.476C62.672 85.836 62.604 86.168 62.468 86.472C62.332 86.776 62.146 87.04 61.91 87.264C61.674 87.488 61.402 87.662 61.094 87.786C60.786 87.91 60.46 87.972 60.116 87.972C59.772 87.972 59.446 87.91 59.138 87.786C58.83 87.662 58.56 87.488 58.328 87.264C58.096 87.04 57.912 86.776 57.776 86.472Z" fill="#FD0D00"/>
<path fill-rule="evenodd" clip-rule="evenodd" d="M71.0333 80.9519H67.5533V89.9999H71.0333C71.6573 89.9999 72.2393 89.8759 72.7793 89.6279C73.3193 89.3799 73.7913 89.0479 74.1953 88.6319C74.5993 88.2159 74.9153 87.7339 75.1433 87.1859C75.3713 86.6379 75.4853 86.0679 75.4853 85.4759C75.4853 84.8759 75.3693 84.3019 75.1373 83.7539C74.9053 83.2059 74.5873 82.7259 74.1833 82.3139C73.7793 81.9019 73.3073 81.5719 72.7673 81.3239C72.2273 81.0759 71.6493 80.9519 71.0333 80.9519ZM70.4453 88.0079H69.9053V82.9439H70.4453C70.8453 82.9439 71.2053 83.0079 71.5253 83.1359C71.8453 83.2639 72.1153 83.4399 72.3353 83.6639C72.5553 83.8879 72.7253 84.1559 72.8453 84.4679C72.9653 84.7799 73.0253 85.1159 73.0253 85.4759C73.0253 85.8439 72.9673 86.1819 72.8513 86.4899C72.7353 86.7979 72.5673 87.0639 72.3473 87.2879C72.1273 87.5119 71.8573 87.6879 71.5373 87.8159C71.2173 87.9439 70.8533 88.0079 70.4453 88.0079Z" fill="#FD0D00"/>
</svg>
